<svg version="1.1" xmlns="http://www.w3.org/2000/svg" viewBox="0 0 1668 323.25" width="5004" height="969.75">
  <!-- svg-source:excalidraw -->
  
  <defs>
    <style>
      @font-face {
        font-family: "Virgil";
        src: url("https://excalidraw.com/Virgil.woff2");
      }
      @font-face {
        font-family: "Cascadia";
        src: url("https://excalidraw.com/Cascadia.woff2");
      }
    </style>
  </defs>
  <rect x="0" y="0" width="1668" height="323.25" fill="#ffffff"></rect><g transform="translate(10 141.75) rotate(0 82.5 17.5)"><text x="0" y="25" font-family="Virgil, Segoe UI Emoji" font-size="28px" fill="#000000" text-anchor="start" style="white-space: pre;" direction="ltr">Source code</text></g><g transform="translate(426 141.25) rotate(0 29 17.5)"><text x="0" y="25" font-family="Virgil, Segoe UI Emoji" font-size="28px" fill="#000000" text-anchor="start" style="white-space: pre;" direction="ltr">AST</text></g><g stroke-linecap="round"><g transform="translate(198 159.75) rotate(0 86.41884822919963 -0.22545091727283761)"><path d="M-0.95 -0.59 C27.95 -1.01, 144.71 -1.76, 173.78 -2.16 M0.76 1.71 C29.44 1.46, 144.1 -0.06, 172.72 -0.71" stroke="#000000" stroke-width="1" fill="none"></path></g><g transform="translate(198 159.75) rotate(0 86.41884822919963 -0.22545091727283761)"><path d="M143.72 9.67 C153.8 5.82, 161.8 2.59, 172.68 -1.06 M144.84 10.35 C154.85 5.81, 162.53 2.55, 173.5 -0.3" stroke="#000000" stroke-width="1" fill="none"></path></g><g transform="translate(198 159.75) rotate(0 86.41884822919963 -0.22545091727283761)"><path d="M143.37 -10.84 C153.62 -7.83, 161.74 -4.18, 172.68 -1.06 M144.48 -10.16 C154.55 -8.02, 162.34 -4.59, 173.5 -0.3" stroke="#000000" stroke-width="1" fill="none"></path></g></g><g transform="translate(249 113.25) rotate(0 37.5 17.5)"><text x="0" y="25" font-family="Virgil, Segoe UI Emoji" font-size="28px" fill="#000000" text-anchor="start" style="white-space: pre;" direction="ltr">parse</text></g><g transform="translate(742 133.25) rotate(0 153 17.5)"><text x="0" y="25" font-family="Virgil, Segoe UI Emoji" font-size="28px" fill="#000000" text-anchor="start" style="white-space: pre;" direction="ltr">Baseline compiled code</text></g><g stroke-linecap="round"><g transform="translate(531 153.75) rotate(0 85.71369146571953 0.13791412040589535)"><path d="M-0.61 1.02 C27.75 0.92, 141.23 -0.61, 169.9 -0.75 M1.27 0.51 C30 0.56, 143.78 0.22, 172.04 0.4" stroke="#000000" stroke-width="1" fill="none"></path></g><g transform="translate(531 153.75) rotate(0 85.71369146571953 0.13791412040589535)"><path d="M145.54 8.8 C150.49 8.58, 159.94 4.87, 173.17 -0.14 M143.69 10.25 C151.42 8.08, 157.65 6.18, 171.8 1.24" stroke="#000000" stroke-width="1" fill="none"></path></g><g transform="translate(531 153.75) rotate(0 85.71369146571953 0.13791412040589535)"><path d="M145.56 -11.72 C150.48 -6.2, 159.93 -4.17, 173.17 -0.14 M143.71 -10.27 C151.29 -7.7, 157.51 -4.85, 171.8 1.24" stroke="#000000" stroke-width="1" fill="none"></path></g></g><g stroke-linecap="round"><g transform="translate(1077 144.75) rotate(0 101.73991502142974 1.987380624562519)"><path d="M0.66 -0.67 C34.74 0.11, 170.21 4.06, 203.93 4.65 M-0.45 1.59 C33.6 2.03, 169.7 2.54, 203.47 2.86" stroke="#000000" stroke-width="1" fill="none"></path></g><g transform="translate(1077 144.75) rotate(0 101.73991502142974 1.987380624562519)"><path d="M174.1 14.5 C183.46 10.18, 187.61 9.18, 204.95 1.4 M175.16 13.75 C183.59 9.93, 191.53 8, 203.18 3.2" stroke="#000000" stroke-width="1" fill="none"></path></g><g transform="translate(1077 144.75) rotate(0 101.73991502142974 1.987380624562519)"><path d="M174.23 -6.02 C183.55 -5.14, 187.66 -0.93, 204.95 1.4 M175.29 -6.77 C183.67 -4.73, 191.56 -0.81, 203.18 3.2" stroke="#000000" stroke-width="1" fill="none"></path></g></g><g transform="translate(1336 133.25) rotate(0 161 17.5)"><text x="0" y="25" font-family="Virgil, Segoe UI Emoji" font-size="28px" fill="#000000" text-anchor="start" style="white-space: pre;" direction="ltr">Optimized compiled code</text></g><g stroke-linecap="round"><g transform="translate(1020.1749067559815 263.6786643624747) rotate(180.064692431412 157.38203442337476 -41.359414917371424)"><path d="M1.17 -1.04 C27.42 -15.2, 106.01 -84.18, 157.81 -83.82 C209.6 -83.47, 286.08 -13.03, 311.95 1.1 M0.32 1.02 C26.46 -12.44, 104.9 -82.1, 157.25 -82.44 C209.6 -82.77, 288.41 -15.11, 314.44 -1" stroke="#000000" stroke-width="1" fill="none"></path></g><g transform="translate(1020.1749067559815 263.6786643624747) rotate(180.064692431412 157.38203442337476 -41.359414917371424)"><path d="M283.58 -6.96 C294.34 -7.43, 305.01 -3.31, 314.98 -1.93 M285.23 -7.64 C291.67 -5.75, 297.38 -4.35, 313.95 -0.68" stroke="#000000" stroke-width="1" fill="none"></path></g><g transform="translate(1020.1749067559815 263.6786643624747) rotate(180.064692431412 157.38203442337476 -41.359414917371424)"><path d="M295.03 -23.99 C302.24 -18.84, 309.2 -9.2, 314.98 -1.93 M296.68 -24.67 C300.87 -19.25, 304.18 -14.27, 313.95 -0.68" stroke="#000000" stroke-width="1" fill="none"></path></g></g><g stroke-linecap="round"><g transform="translate(473.99209640295794 124.75) rotate(0 -16.219287250128502 -24.843782630125816)"><path d="M0.55 -0.12 C-2.24 -9.44, -12.05 -57.22, -17.56 -56.06 C-23.07 -54.91, -30.05 -3.58, -32.49 6.79 M-0.62 -1.23 C-3.51 -10.86, -13.18 -59.22, -18.58 -57.68 C-23.97 -56.15, -30.84 -2.75, -32.99 8" stroke="#000000" stroke-width="1" fill="none"></path></g><g transform="translate(473.99209640295794 124.75) rotate(0 -16.219287250128502 -24.843782630125816)"><path d="M-38.77 -21.7 C-35.71 -13.79, -36.36 -6.39, -34.45 7.73 M-38.01 -22.02 C-36.99 -10.71, -33.28 1.23, -33.43 8.83" stroke="#000000" stroke-width="1" fill="none"></path></g><g transform="translate(473.99209640295794 124.75) rotate(0 -16.219287250128502 -24.843782630125816)"><path d="M-18.52 -18.39 C-20.18 -11.16, -25.55 -4.53, -34.45 7.73 M-17.75 -18.71 C-24.45 -8.71, -28.43 1.97, -33.43 8.83" stroke="#000000" stroke-width="1" fill="none"></path></g></g><g transform="translate(335 22.25) rotate(0 121.5 17.5)"><text x="0" y="25" font-family="Virgil, Segoe UI Emoji" font-size="28px" fill="#000000" text-anchor="start" style="white-space: pre;" direction="ltr">run by interpreter</text></g><g stroke-linecap="round"><g transform="translate(909.4920964029579 113.5) rotate(0 -16.925498357855645 -25.147581397253873)"><path d="M0.26 -0.38 C-2.72 -10.01, -12.46 -57.9, -18.04 -56.86 C-23.62 -55.82, -30.83 -4.93, -33.23 5.85 M-1.06 -1.63 C-3.62 -11.11, -10.13 -56.6, -15.64 -55.23 C-21.15 -53.87, -31.42 -3.59, -34.11 6.56" stroke="#000000" stroke-width="1" fill="none"></path></g><g transform="translate(909.4920964029579 113.5) rotate(0 -16.925498357855645 -25.147581397253873)"><path d="M-38.27 -24.24 C-36.13 -15.1, -37.32 -5.18, -32.76 7.55 M-38.02 -23.66 C-37.49 -16.06, -36.44 -9.94, -34.47 6.14" stroke="#000000" stroke-width="1" fill="none"></path></g><g transform="translate(909.4920964029579 113.5) rotate(0 -16.925498357855645 -25.147581397253873)"><path d="M-18.3 -19.53 C-21.91 -11.7, -28.8 -3.13, -32.76 7.55 M-18.04 -18.96 C-22.28 -12.44, -25.97 -7.43, -34.47 6.14" stroke="#000000" stroke-width="1" fill="none"></path></g></g><g transform="translate(687.5 12) rotate(0 211 17.5)"><text x="0" y="25" font-family="Virgil, Segoe UI Emoji" font-size="28px" fill="#000000" text-anchor="start" style="white-space: pre;" direction="ltr">run, analyze, and compile again</text></g><g stroke-linecap="round"><g transform="translate(1520.492096402958 110.5) rotate(0 -16.54422205849835 -25.36782695089542)"><path d="M-0.23 -1.15 C-2.94 -10.55, -11.47 -57.44, -16.83 -56.21 C-22.19 -54.98, -29.82 -4.32, -32.4 6.25 M-1.81 0.86 C-4.57 -8.88, -12.29 -58.96, -17.46 -57.91 C-22.63 -56.85, -30.48 -3.89, -32.86 7.17" stroke="#000000" stroke-width="1" fill="none"></path></g><g transform="translate(1520.492096402958 110.5) rotate(0 -16.54422205849835 -25.36782695089542)"><path d="M-39.84 -21.39 C-35.26 -14.02, -36.61 -6.53, -32.5 6.41 M-38.56 -23.24 C-37.23 -15.24, -34.82 -6.87, -33.62 6.55" stroke="#000000" stroke-width="1" fill="none"></path></g><g transform="translate(1520.492096402958 110.5) rotate(0 -16.54422205849835 -25.36782695089542)"><path d="M-19.65 -17.73 C-20.11 -11.32, -26.5 -4.74, -32.5 6.41 M-18.36 -19.58 C-22.19 -12.5, -24.95 -5.07, -33.62 6.55" stroke="#000000" stroke-width="1" fill="none"></path></g></g><g transform="translate(1482.5 10) rotate(0 20.5 17.5)"><text x="0" y="25" font-family="Virgil, Segoe UI Emoji" font-size="28px" fill="#000000" text-anchor="start" style="white-space: pre;" direction="ltr">run</text></g><g transform="translate(1136 278.25) rotate(0 44 17.5)"><text x="0" y="25" font-family="Virgil, Segoe UI Emoji" font-size="28px" fill="#000000" text-anchor="start" style="white-space: pre;" direction="ltr">de-opt</text></g><g transform="translate(566 107.25) rotate(0 45 17.5)"><text x="0" y="25" font-family="Virgil, Segoe UI Emoji" font-size="28px" fill="#000000" text-anchor="start" style="white-space: pre;" direction="ltr">compile</text></g><g transform="translate(1135 99.25) rotate(0 45 17.5)"><text x="0" y="25" font-family="Virgil, Segoe UI Emoji" font-size="28px" fill="#000000" text-anchor="start" style="white-space: pre;" direction="ltr">compile</text></g></svg>