<svg version="1.1" xmlns="http://www.w3.org/2000/svg" viewBox="0 0 271.99999999999966 298.3333333333333" width="271.99999999999966" height="298.3333333333333">
  <!-- svg-source:excalidraw -->
  
  <defs>
    <style>
      @font-face {
        font-family: "Virgil";
        src: url("https://excalidraw.com/Virgil.woff2");
      }
      @font-face {
        font-family: "Cascadia";
        src: url("https://excalidraw.com/Cascadia.woff2");
      }
    </style>
  </defs>
  <rect x="0" y="0" width="271.99999999999966" height="298.3333333333333" fill="#ffffff"></rect><g transform="translate(32 10) rotate(0 23.500000000000057 12.5)"><text x="0" y="18" font-family="Virgil, Segoe UI Emoji" font-size="20px" fill="#000000" text-anchor="start" style="white-space: pre;" direction="ltr">Rust</text></g><g transform="translate(135.33333333333314 10) rotate(0 6.5 12.5)"><text x="0" y="18" font-family="Virgil, Segoe UI Emoji" font-size="20px" fill="#000000" text-anchor="start" style="white-space: pre;" direction="ltr">C</text></g><g transform="translate(208.6666666666664 10) rotate(0 13.5 12.5)"><text x="0" y="18" font-family="Virgil, Segoe UI Emoji" font-size="20px" fill="#000000" text-anchor="start" style="white-space: pre;" direction="ltr">Go</text></g><g stroke-linecap="round"><g transform="translate(48 47.00000000000006) rotate(0 0.8737194006005211 96.26218745850335)"><path d="M-1.14 0.43 C-1.1 32.41, 0.15 159.83, 0.8 191.82 M0.47 -0.39 C0.79 31.73, 2.57 160.59, 2.88 192.92" stroke="#000000" stroke-width="1" fill="none"></path></g><g transform="translate(48 47.00000000000006) rotate(0 0.8737194006005211 96.26218745850335)"><path d="M-7 162.85 C-5.42 176.04, -0.77 185.44, 1.88 193.2 M-7.42 165.77 C-5.49 172.95, -2.45 181.62, 2.68 192.39" stroke="#000000" stroke-width="1" fill="none"></path></g><g transform="translate(48 47.00000000000006) rotate(0 0.8737194006005211 96.26218745850335)"><path d="M13.52 162.61 C7.9 175.69, 5.35 185.17, 1.88 193.2 M13.1 165.52 C9.2 172.89, 6.42 181.64, 2.68 192.39" stroke="#000000" stroke-width="1" fill="none"></path></g></g><g stroke-linecap="round"><g transform="translate(142.4562138433172 41.00000000000006) rotate(0 -37.58732818091488 95.12190896831606)"><path d="M0.57 0.82 C-11.89 32.45, -63.08 158.63, -75.74 190.05 M-0.59 0.2 C-12.56 31.47, -60.74 156.57, -73.36 188.3" stroke="#000000" stroke-width="1" fill="none"></path></g><g transform="translate(142.4562138433172 41.00000000000006) rotate(0 -37.58732818091488 95.12190896831606)"><path d="M-71.3 157.27 C-71.57 164.34, -72.98 170.09, -72.52 187.91 M-72.21 158.31 C-72.58 168.39, -73.77 178.91, -72.51 189.04" stroke="#000000" stroke-width="1" fill="none"></path></g><g transform="translate(142.4562138433172 41.00000000000006) rotate(0 -37.58732818091488 95.12190896831606)"><path d="M-52.19 164.74 C-56.59 170.28, -62.13 174.43, -72.52 187.91 M-53.09 165.77 C-59.8 173.35, -67.28 181.42, -72.51 189.04" stroke="#000000" stroke-width="1" fill="none"></path></g></g><g stroke-linecap="round"><g transform="translate(218.1595056303246 41.666666666666686) rotate(0 -61.93255678906871 98.04946465037912)"><path d="M-0.38 0.68 C-21.07 33.49, -104.16 163.62, -124.87 196.11 M1.63 -0.01 C-19.1 32.53, -104.39 161.54, -125.49 194.4" stroke="#000000" stroke-width="1" fill="none"></path></g><g transform="translate(218.1595056303246 41.666666666666686) rotate(0 -61.93255678906871 98.04946465037912)"><path d="M-117.55 166.22 C-119.2 173.54, -121.59 180.83, -124.93 195.03 M-119.04 165.26 C-121.61 176.47, -124.68 188.9, -125.03 193.51" stroke="#000000" stroke-width="1" fill="none"></path></g><g transform="translate(218.1595056303246 41.666666666666686) rotate(0 -61.93255678906871 98.04946465037912)"><path d="M-100.37 177.43 C-106.06 182.01, -112.58 186.62, -124.93 195.03 M-101.86 176.48 C-111.1 183.46, -120.85 191.53, -125.03 193.51" stroke="#000000" stroke-width="1" fill="none"></path></g></g><g stroke-linecap="round"><g transform="translate(58 45) rotate(0 63.91183479903742 94.82758433023)"><path d="M1.12 -0.26 C22.36 31.52, 106.31 159.4, 127.57 191.1 M0.26 -1.45 C21.29 29.99, 105.06 157.45, 126.39 189.56" stroke="#000000" stroke-width="1" fill="none"></path></g><g transform="translate(58 45) rotate(0 63.91183479903742 94.82758433023)"><path d="M101.85 170.97 C111.68 178.13, 117.2 182.07, 126.91 189.82 M103.24 171.49 C107.63 176.46, 113.6 180.7, 126.03 190.45" stroke="#000000" stroke-width="1" fill="none"></path></g><g transform="translate(58 45) rotate(0 63.91183479903742 94.82758433023)"><path d="M118.98 159.66 C123.52 170.5, 123.73 177.95, 126.91 189.82 M120.36 160.18 C120.74 167.8, 122.64 174.73, 126.03 190.45" stroke="#000000" stroke-width="1" fill="none"></path></g></g><g stroke-linecap="round"><g transform="translate(146.1717756135887 41.666666666666686) rotate(0 29.38730277888203 95.37852041859335)"><path d="M-0.59 1.03 C9.23 32.55, 49.59 159.01, 59.37 190.23 M1.3 0.53 C10.97 32.24, 48.84 157.15, 58.71 188.57" stroke="#000000" stroke-width="1" fill="none"></path></g><g transform="translate(146.1717756135887 41.666666666666686) rotate(0 29.38730277888203 95.37852041859335)"><path d="M42.33 165.57 C48.4 171.5, 51.3 182.19, 57.23 189.3 M41.29 165.6 C46.41 171.51, 50.58 178.53, 59.26 188.17" stroke="#000000" stroke-width="1" fill="none"></path></g><g transform="translate(146.1717756135887 41.666666666666686) rotate(0 29.38730277888203 95.37852041859335)"><path d="M61.94 159.53 C61.48 167.4, 57.78 180.11, 57.23 189.3 M60.9 159.56 C60.73 167.02, 59.56 175.69, 59.26 188.17" stroke="#000000" stroke-width="1" fill="none"></path></g></g><g stroke-linecap="round"><g transform="translate(229.56039232076466 49.000000000000114) rotate(0 -5.179950716720782 89.32300169844328)"><path d="M0.54 -0.37 C-1.44 29.76, -9.3 150.28, -10.9 180.25 M-0.63 -1.61 C-2.3 28.24, -7.09 148.2, -8.52 178.61" stroke="#000000" stroke-width="1" fill="none"></path></g><g transform="translate(229.56039232076466 49.000000000000114) rotate(0 -5.179950716720782 89.32300169844328)"><path d="M-18.17 148.94 C-12.71 162.8, -10.54 173.61, -10.03 177.2 M-18.14 149.33 C-13.66 160.49, -10.67 170.73, -9.04 178.88" stroke="#000000" stroke-width="1" fill="none"></path></g><g transform="translate(229.56039232076466 49.000000000000114) rotate(0 -5.179950716720782 89.32300169844328)"><path d="M2.33 149.83 C0 163.45, -5.63 173.92, -10.03 177.2 M2.36 150.22 C-0.36 161.11, -4.58 171.03, -9.04 178.88" stroke="#000000" stroke-width="1" fill="none"></path></g></g><g stroke-linecap="round" transform="translate(10 240.99999999999994) rotate(0 56.00000000000006 23.666666666666686)"><path d="M-1.5 0.69 C39 -1.68, 77.66 -1.83, 111.32 -1.55 M-0.4 0.88 C44.68 -0.7, 88.3 -0.29, 111.67 0.97 M110.98 -0.38 C113.61 11.38, 110.3 23.84, 112.88 45.76 M111.01 0.71 C112.58 13.02, 111.55 28.08, 111.58 47.51 M111.43 48.86 C75.41 46.49, 37.42 46.41, 1.74 46.88 M111.97 47.65 C79.45 48.37, 45.94 48.66, 0.36 46.45 M-1.97 48.86 C0.37 35.82, -0.21 21.2, 1.81 -1.95 M-0.58 48.24 C-0.07 29.21, -0.14 13.08, 0.9 0.63" stroke="#000000" stroke-width="1" fill="none"></path></g><g stroke-linecap="round" transform="translate(149.99999999999966 240.66666666666669) rotate(0 56 23.666666666666686)"><path d="M-0.9 1.41 C45.49 1.99, 88.07 0.53, 112.75 -1.01 M-0.58 -0.6 C37.47 -0.32, 72.42 -1.58, 111.5 -0.4 M110.53 -0.68 C111.66 12.9, 112.91 21.39, 111.46 48.69 M112.96 0.32 C112.26 14.76, 113.11 31.36, 112.95 46.99 M111.69 46.92 C88.9 49.3, 65.9 49.11, 0.99 47.02 M112.93 48.01 C80.04 47.7, 47.89 46.06, -0.18 46.59 M-0.89 48.45 C0.88 36.42, -0.06 22.74, 1.01 0.87 M0.3 46.83 C0.26 31.62, -0.87 18.77, -0.3 0.26" stroke="#000000" stroke-width="1" fill="none"></path></g><g transform="translate(46.000000000000114 252.16666666666657) rotate(0 20 12.5)"><text x="20" y="18" font-family="Virgil, Segoe UI Emoji" font-size="20px" fill="#000000" text-anchor="middle" style="white-space: pre;" direction="ltr">X86</text></g><g transform="translate(184.99999999999966 251.83333333333331) rotate(0 21 12.5)"><text x="21" y="18" font-family="Virgil, Segoe UI Emoji" font-size="20px" fill="#000000" text-anchor="middle" style="white-space: pre;" direction="ltr">ARM</text></g></svg>