<svg version="1.1" xmlns="http://www.w3.org/2000/svg" viewBox="0 0 337.1076588451583 611.8937908638269" width="1011.3229765354749" height="1835.6813725914808">
  <!-- svg-source:excalidraw -->
  
  <defs>
    <style>
      @font-face {
        font-family: "Virgil";
        src: url("https://excalidraw.com/Virgil.woff2");
      }
      @font-face {
        font-family: "Cascadia";
        src: url("https://excalidraw.com/Cascadia.woff2");
      }
    </style>
  </defs>
  <rect x="0" y="0" width="337.1076588451583" height="611.8937908638269" fill="#ffffff"></rect><g stroke-linecap="round"><g transform="translate(187.63491442324926 43.66666666666663) rotate(0 -0.009371631220233212 70.22198938019577)"><path d="M-0.33 -0.36 C-0.09 23.21, 0.05 117.44, 0.31 140.8" stroke="#000000" stroke-width="1.5" fill="none" stroke-dasharray="1.5 7"></path></g></g><g transform="translate(28.968247756582286 50) rotate(0 69.5 12.5)"><text x="0" y="18" font-family="Virgil, Segoe UI Emoji" font-size="20px" fill="#000000" text-anchor="start" style="white-space: pre;" direction="ltr">Ahead of time</text></g><g transform="translate(204.96824775658274 51.33333333333326) rotate(0 59.5 12.5)"><text x="0" y="18" font-family="Virgil, Segoe UI Emoji" font-size="20px" fill="#000000" text-anchor="start" style="white-space: pre;" direction="ltr">Just in time</text></g><g transform="translate(242.96824775658274 125.33333333333337) rotate(0 31 12.5)"><text x="0" y="18" font-family="Virgil, Segoe UI Emoji" font-size="20px" fill="#000000" text-anchor="start" style="white-space: pre;" direction="ltr">running</text></g><g transform="translate(58.9682477565824 123.33333333333337) rotate(0 38.5 12.5)"><text x="0" y="18" font-family="Virgil, Segoe UI Emoji" font-size="20px" fill="#000000" text-anchor="start" style="white-space: pre;" direction="ltr">compiling</text></g><g stroke-linecap="round"><g transform="translate(140.9682477565825 139.23011506881676) rotate(0 45.98781009452574 0.46593747236215677)"><path d="M0.38 -0.55 C15.78 -0.58, 77.31 -0.89, 92.85 -0.9 M-0.88 1.77 C14.28 2.02, 76.01 1.45, 91.65 0.69" stroke="#000000" stroke-width="1" fill="none"></path></g><g transform="translate(140.9682477565825 139.23011506881676) rotate(0 45.98781009452574 0.46593747236215677)"><path d="M62.81 10.87 C73.44 8.32, 83.4 3.26, 89.86 2.68 M63.71 10.69 C70.36 9.93, 74.87 7.97, 91.12 1.62" stroke="#000000" stroke-width="1" fill="none"></path></g><g transform="translate(140.9682477565825 139.23011506881676) rotate(0 45.98781009452574 0.46593747236215677)"><path d="M62.29 -9.65 C72.97 -5.23, 83.11 -3.32, 89.86 2.68 M63.19 -9.82 C70.08 -6.18, 74.7 -3.75, 91.12 1.62" stroke="#000000" stroke-width="1" fill="none"></path></g></g><g stroke-linecap="round"><g transform="translate(326.30158108991577 81) rotate(0 -151.34440460496728 -0.6129656476667265)"><path d="M0.81 -1.02 C-49.75 -1.43, -252.15 -1.95, -302.82 -2.28 M-0.23 1.06 C-50.95 0.82, -252.88 -0.35, -303.49 -0.9" stroke="#000000" stroke-width="1" fill="none"></path></g></g><g transform="translate(130.30158108991554 10) rotate(0 60 12.5)"><text x="0" y="18" font-family="Virgil, Segoe UI Emoji" font-size="20px" fill="#000000" text-anchor="start" style="white-space: pre;" direction="ltr">Native Code</text></g><g stroke-linecap="round"><g transform="translate(173.9682477565824 246.29888472594314) rotate(0 1.55802877657095 70.20707386620342)"><path d="M1.14 -0.49 C1.27 23.17, 1.84 117.56, 1.98 140.9" stroke="#000000" stroke-width="1.5" fill="none" stroke-dasharray="1.5 7"></path></g></g><g transform="translate(15.30158108991543 252.6322180592765) rotate(0 69.5 12.5)"><text x="0" y="18" font-family="Virgil, Segoe UI Emoji" font-size="20px" fill="#000000" text-anchor="start" style="white-space: pre;" direction="ltr">Ahead of time</text></g><g transform="translate(191.30158108991577 253.96555139260977) rotate(0 59.5 12.5)"><text x="0" y="18" font-family="Virgil, Segoe UI Emoji" font-size="20px" fill="#000000" text-anchor="start" style="white-space: pre;" direction="ltr">Just in time</text></g><g transform="translate(214.6349144232488 347.9655513926099) rotate(0 31 12.5)"><text x="0" y="18" font-family="Virgil, Segoe UI Emoji" font-size="20px" fill="#000000" text-anchor="start" style="white-space: pre;" direction="ltr">running</text></g><g transform="translate(207.30158108991577 322.6322180592765) rotate(0 38.5 12.5)"><text x="0" y="18" font-family="Virgil, Segoe UI Emoji" font-size="20px" fill="#000000" text-anchor="start" style="white-space: pre;" direction="ltr">compiling</text></g><g stroke-linecap="round"><g transform="translate(312.6349144232488 283.6322180592765) rotate(0 -150.7887646737057 -1.019622314721346)"><path d="M1.06 0.23 C-49.46 -0.01, -251.61 -1.97, -302.25 -2.27 M0.15 -0.69 C-50.5 -0.68, -252.06 -0.37, -302.63 -0.88" stroke="#000000" stroke-width="1" fill="none"></path></g></g><g transform="translate(123.30158108991532 213.29888472594314) rotate(0 53 12.5)"><text x="0" y="18" font-family="Virgil, Segoe UI Emoji" font-size="20px" fill="#000000" text-anchor="start" style="white-space: pre;" direction="ltr">JavaScript</text></g><g stroke-linecap="round"><g transform="translate(181.30158108991634 462.29888472594325) rotate(0 -0.19609577942219403 70.02102969773114)"><path d="M-0.47 0.45 C-0.55 23.65, -0.32 116.23, 0.09 139.59" stroke="#000000" stroke-width="1.5" fill="none" stroke-dasharray="1.5 7"></path></g></g><g transform="translate(22.63491442324937 468.6322180592765) rotate(0 69.5 12.5)"><text x="0" y="18" font-family="Virgil, Segoe UI Emoji" font-size="20px" fill="#000000" text-anchor="start" style="white-space: pre;" direction="ltr">Ahead of time</text></g><g transform="translate(198.63491442324926 469.96555139260977) rotate(0 59.5 12.5)"><text x="0" y="18" font-family="Virgil, Segoe UI Emoji" font-size="20px" fill="#000000" text-anchor="start" style="white-space: pre;" direction="ltr">Just in time</text></g><g transform="translate(225.30158108991577 567.9655513926098) rotate(0 31 12.5)"><text x="0" y="18" font-family="Virgil, Segoe UI Emoji" font-size="20px" fill="#000000" text-anchor="start" style="white-space: pre;" direction="ltr">running</text></g><g transform="translate(59.301581089916226 533.298884725943) rotate(0 38.5 12.5)"><text x="0" y="18" font-family="Virgil, Segoe UI Emoji" font-size="20px" fill="#000000" text-anchor="start" style="white-space: pre;" direction="ltr">compiling</text></g><g stroke-linecap="round"><g transform="translate(146.6349144232497 547.1678353242513) rotate(0 29.950833802852287 0.22294786761341356)"><path d="M0.26 -0.7 C10.56 -1.02, 50.91 -1.18, 60.96 -1.07 M-1.06 1.55 C9.19 1.35, 50.09 0.99, 60.24 0.41" stroke="#000000" stroke-width="1" fill="none"></path></g><g transform="translate(146.6349144232497 547.1678353242513) rotate(0 29.950833802852287 0.22294786761341356)"><path d="M31.2 12.22 C38.6 8.96, 46.8 4.79, 61.87 0.99 M33.34 11.93 C38.26 7.78, 45.61 5.69, 59.46 -0.56" stroke="#000000" stroke-width="1" fill="none"></path></g><g transform="translate(146.6349144232497 547.1678353242513) rotate(0 29.950833802852287 0.22294786761341356)"><path d="M30.6 -8.29 C38.28 -6.78, 46.63 -6.17, 61.87 0.99 M32.74 -8.58 C37.91 -7.79, 45.41 -4.92, 59.46 -0.56" stroke="#000000" stroke-width="1" fill="none"></path></g></g><g stroke-linecap="round"><g transform="translate(319.9682477565823 499.6322180592765) rotate(0 -151.65129971541148 -0.7493813879788149)"><path d="M-0.7 0.43 C-51.41 0.07, -253.15 -1.38, -303.44 -1.93 M1.14 -0.38 C-49.82 -0.56, -253.8 -0.09, -304.44 -0.36" stroke="#000000" stroke-width="1" fill="none"></path></g></g><g transform="translate(121.30158108991611 429.29888472594314) rotate(0 59.50000000000006 12.5)"><text x="0" y="18" font-family="Virgil, Segoe UI Emoji" font-size="20px" fill="#000000" text-anchor="start" style="white-space: pre;" direction="ltr">WebAssembly</text></g><g transform="translate(215.6349144232488 293.33333333333326) rotate(0 33 12.5)"><text x="0" y="18" font-family="Virgil, Segoe UI Emoji" font-size="20px" fill="#000000" text-anchor="start" style="white-space: pre;" direction="ltr">parsing</text></g><g transform="translate(216.9682477565823 512.6666666666666) rotate(0 39.5 12.5)"><text x="0" y="18" font-family="Virgil, Segoe UI Emoji" font-size="20px" fill="#000000" text-anchor="start" style="white-space: pre;" direction="ltr">decoding</text></g><g transform="translate(236.9682477565823 367.33333333333337) rotate(0 8 12.5)"><text x="0" y="18" font-family="Virgil, Segoe UI Emoji" font-size="20px" fill="#000000" text-anchor="start" style="white-space: pre;" direction="ltr">...</text></g><g transform="translate(219.1349144232488 540.5) rotate(0 38.5 12.5)"><text x="0" y="18" font-family="Virgil, Segoe UI Emoji" font-size="20px" fill="#000000" text-anchor="start" style="white-space: pre;" direction="ltr">compiling</text></g></svg>