<svg version="1.1" xmlns="http://www.w3.org/2000/svg" xmlns:xlink="http://www.w3.org/1999/xlink" width="1958" height="1140"><defs><clipPath id="wgmPbpbrllpc"><path fill="none" stroke="none" d=" M 0 0 L 1958 0 L 1958 1140 L 0 1140 L 0 0 Z"/></clipPath></defs><g transform="scale(1,1)" clip-path="url(#wgmPbpbrllpc)"><g><rect fill="rgb(255,255,255)" stroke="none" x="0" y="0" width="1958" height="1140" fill-opacity="1"/><path fill="none" stroke="rgb(192,192,192)" paint-order="fill stroke markers" d=" M 364.5 0.5 L 364.5 1116.5 M 694.5 0.5 L 694.5 1116.5 M 1025.5 0.5 L 1025.5 1116.5 M 1355.5 0.5 L 1355.5 1116.5 M 1685.5 0.5 L 1685.5 1116.5" stroke-opacity="1" stroke-linecap="round" stroke-linejoin="round" stroke-miterlimit="10"/><path fill="none" stroke="rgb(192,192,192)" paint-order="fill stroke markers" d="" stroke-opacity="0.23529411764705882" stroke-linecap="round" stroke-linejoin="round" stroke-miterlimit="10"/><path fill="none" stroke="rgb(192,192,192)" paint-order="fill stroke markers" d=" M 33.5 125.5 L 1958.5 125.5 M 33.5 125.5 L 1958.5 125.5 M 33.5 455.5 L 1958.5 455.5 M 33.5 786.5 L 1958.5 786.5" stroke-opacity="1" stroke-linecap="round" stroke-linejoin="round" stroke-miterlimit="10"/><path fill="none" stroke="rgb(192,192,192)" paint-order="fill stroke markers" d="" stroke-opacity="0.23529411764705882" stroke-linecap="round" stroke-linejoin="round" stroke-miterlimit="10"/><path fill="none" stroke="rgb(0,0,0)" paint-order="fill stroke markers" d=" M 34 3 L 34 1116" stroke-opacity="1" stroke-miterlimit="10" stroke-width="2"/><path fill="none" stroke="rgb(0,0,0)" paint-order="fill stroke markers" d=" M 34 2 L 26 10" stroke-opacity="1" stroke-miterlimit="10" stroke-width="2"/><path fill="none" stroke="rgb(0,0,0)" paint-order="fill stroke markers" d=" M 34 2 L 42 10" stroke-opacity="1" stroke-miterlimit="10" stroke-width="2"/><text fill="rgb(0,0,0)" stroke="none" font-family="geogebra-sans-serif, sans-serif" font-size="28px" font-style="normal" font-weight="normal" text-decoration="normal" x="1928" y="1112" text-anchor="start" dominant-baseline="alphabetic" fill-opacity="1">N</text><path fill="none" stroke="rgb(0,0,0)" paint-order="fill stroke markers" d=" M 33 1117 L 1955 1117" stroke-opacity="1" stroke-miterlimit="10" stroke-width="2"/><path fill="none" stroke="rgb(0,0,0)" paint-order="fill stroke markers" d=" M 1956 1117 L 1948 1109" stroke-opacity="1" stroke-miterlimit="10" stroke-width="2"/><path fill="none" stroke="rgb(0,0,0)" paint-order="fill stroke markers" d=" M 1956 1117 L 1948 1125" stroke-opacity="1" stroke-miterlimit="10" stroke-width="2"/><text fill="rgb(0,0,0)" stroke="none" font-family="geogebra-sans-serif, sans-serif" font-size="28px" font-style="normal" font-weight="normal" text-decoration="normal" x="38" y="27" text-anchor="start" dominant-baseline="alphabetic" fill-opacity="1">Time</text><path fill="none" stroke="rgb(46,125,50)" paint-order="fill stroke markers" d=" M 33.71394012756027 1116.7117882033108 L 34.41796875000001 1116.007759580871 M 34.41796875000001 1116.007759580871 L 38.24218750000001 1112.183540830871 M 38.24218750000001 1112.183540830871 L 42.06640625000001 1108.359322080871 L 45.89062500000001 1104.535103330871 M 45.89062500000001 1104.535103330871 L 49.71484375000001 1100.710884580871 L 53.53906250000001 1096.886665830871 L 57.36328125000001 1093.062447080871 L 61.18750000000001 1089.238228330871 M 61.18750000000001 1089.238228330871 L 65.01171875000001 1085.414009580871 L 68.8359375 1081.589790830871 L 72.66015625 1077.765572080871 L 76.48437500000001 1073.941353330871 L 80.30859375 1070.117134580871 L 84.13281250000001 1066.292915830871 L 87.95703125000001 1062.468697080871 L 91.78125 1058.644478330871 L 95.60546875000001 1054.820259580871 L 99.4296875 1050.996040830871 L 103.25390625000003 1047.171822080871 L 107.078125 1043.347603330871 L 110.90234375 1039.523384580871 L 114.72656250000003 1035.699165830871 L 118.55078125000003 1031.874947080871 L 122.37500000000003 1028.050728330871 M 122.37500000000003 1028.050728330871 L 126.19921875 1024.226509580871 L 130.0234375 1020.4022908308709 L 133.84765625000003 1016.5780720808709 L 137.67187500000003 1012.7538533308709 L 141.49609375000003 1008.9296345808709 L 145.3203125 1005.1054158308709 L 149.14453125 1001.2811970808709 L 152.96875000000003 997.4569783308709 L 156.79296875 993.6327595808709 L 160.61718750000003 989.8085408308709 L 164.44140625000003 985.9843220808709 L 168.26562500000003 982.1601033308709 L 172.08984375000003 978.3358845808709 L 175.9140625 974.5116658308709 L 179.73828125000003 970.6874470808709 L 183.5625 966.8632283308709 L 187.38671875000003 963.0390095808709 L 191.21093750000003 959.2147908308709 L 195.03515625 955.3905720808709 L 198.85937500000003 951.5663533308709 L 202.68359375000003 947.7421345808709 L 206.50781250000003 943.9179158308709 L 210.33203125 940.0936970808709 L 214.15625000000003 936.2694783308709 L 217.98046875000003 932.4452595808709 L 221.8046875 928.6210408308709 L 225.62890625000003 924.7968220808709 L 229.45312500000003 920.9726033308709 L 233.27734375000003 917.1483845808709 L 237.10156250000003 913.3241658308709 L 240.92578125000003 909.4999470808709 L 244.75000000000003 905.6757283308709 M 244.75000000000003 905.6757283308709 L 248.57421875000003 901.8515095808709 L 252.39843750000003 898.0272908308709 L 256.22265625 894.2030720808709 L 260.046875 890.3788533308709 L 263.87109375 886.5546345808709 L 267.6953125 882.7304158308709 L 271.51953125 878.9061970808709 L 275.34375 875.0819783308709 L 279.16796875 871.2577595808709 L 282.9921875 867.4335408308709 L 286.81640625 863.6093220808709 L 290.640625 859.7851033308709 L 294.46484375000006 855.9608845808709 L 298.2890625 852.1366658308709 L 302.11328125 848.3124470808709 L 305.93750000000006 844.4882283308709 L 309.76171875 840.6640095808709 L 313.5859375 836.8397908308709 L 317.41015625000006 833.0155720808709 L 321.234375 829.1913533308709 L 325.05859375 825.3671345808709 L 328.8828125 821.5429158308709 L 332.70703125000006 817.7186970808709 L 336.53125 813.8944783308709 L 340.35546875000006 810.0702595808709 L 344.17968750000006 806.2460408308709 L 348.00390625 802.4218220808709 L 351.828125 798.5976033308709 L 355.65234375 794.7733845808709 L 359.4765625 790.9491658308709 L 363.30078125 787.1249470808709 L 367.12500000000006 783.3007283308709 L 370.94921875000006 779.4765095808709 L 374.7734375 775.6522908308709 L 378.59765625 771.8280720808709 L 382.421875 768.0038533308709 L 386.24609375 764.1796345808709 L 390.07031250000006 760.3554158308709 L 393.89453125000006 756.5311970808709 L 397.71875 752.7069783308709 L 401.54296875 748.8827595808709 L 405.3671875 745.0585408308709 L 409.19140625000006 741.2343220808709 L 413.015625 737.4101033308709 L 416.83984375000006 733.5858845808709 L 420.66406250000006 729.7616658308709 L 424.48828125 725.9374470808709 L 428.3125 722.1132283308709 L 432.13671875 718.2890095808709 L 435.96093750000006 714.4647908308709 L 439.78515625 710.6405720808709 L 443.60937500000006 706.8163533308709 L 447.43359375000006 702.9921345808709 L 451.2578125 699.1679158308709 L 455.08203125 695.3436970808709 L 458.90625 691.5194783308709 L 462.73046875 687.6952595808709 L 466.5546875 683.8710408308709 L 470.37890625000006 680.0468220808709 L 474.20312500000006 676.2226033308709 L 478.02734375 672.3983845808709 L 481.8515625 668.5741658308709 L 485.67578125 664.7499470808709 L 489.5 660.9257283308709 M 489.5 660.9257283308709 L 493.32421875 657.1015095808709 L 497.14843750000006 653.2772908308709 L 500.97265625 649.4530720808709 L 504.796875 645.6288533308709 L 508.62109375 641.8046345808709 L 512.4453125 637.9804158308709 L 516.26953125 634.1561970808709 L 520.09375 630.3319783308709 L 523.91796875 626.5077595808709 L 527.7421875 622.6835408308709 L 531.56640625 618.8593220808709 L 535.390625 615.0351033308709 L 539.21484375 611.2108845808709 L 543.0390625 607.3866658308709 L 546.86328125 603.5624470808709 L 550.6875 599.7382283308709 L 554.51171875 595.9140095808709 L 558.3359374999999 592.089790830871 L 562.16015625 588.2655720808709 L 565.984375 584.4413533308709 L 569.80859375 580.6171345808709 L 573.6328125 576.7929158308709 L 577.45703125 572.9686970808709 L 581.28125 569.1444783308709 L 585.1054687499999 565.320259580871 L 588.9296874999999 561.496040830871 L 592.75390625 557.6718220808709 L 596.578125 553.8476033308709 L 600.40234375 550.0233845808709 L 604.2265625 546.1991658308709 L 608.05078125 542.3749470808709 L 611.8749999999999 538.550728330871 L 615.69921875 534.7265095808709 L 619.5234375 530.9022908308709 L 623.34765625 527.0780720808709 L 627.171875 523.2538533308709 L 630.99609375 519.4296345808709 L 634.8203125 515.6054158308709 L 638.6445312499999 511.78119708087104 L 642.4687499999999 507.95697833087104 L 646.29296875 504.1327595808709 L 650.1171875 500.3085408308709 L 653.94140625 496.4843220808709 L 657.765625 492.6601033308709 L 661.5898437499999 488.83588458087104 L 665.4140625 485.0116658308709 L 669.23828125 481.1874470808709 L 673.0625 477.3632283308709 L 676.88671875 473.5390095808709 L 680.7109375 469.7147908308709 L 684.53515625 465.8905720808709 L 688.3593749999999 462.06635333087104 L 692.1835937499999 458.24213458087104 L 696.0078125 454.4179158308709 L 699.83203125 450.5936970808709 L 703.65625 446.7694783308709 L 707.48046875 442.9452595808709 L 711.3046875 439.1210408308709 L 715.12890625 435.2968220808709 L 718.953125 431.4726033308709 L 722.77734375 427.6483845808709 L 726.6015625 423.8241658308709 L 730.42578125 419.9999470808709 L 734.25 416.1757283308709 L 738.0742187499999 412.35150958087104 L 741.8984374999999 408.52729083087104 L 745.72265625 404.7030720808709 L 749.546875 400.8788533308709 L 753.37109375 397.0546345808709 L 757.1953125 393.2304158308709 L 761.0195312500001 389.4061970808708 L 764.84375 385.5819783308709 L 768.66796875 381.7577595808709 L 772.4921875 377.9335408308709 L 776.31640625 374.1093220808709 L 780.140625 370.2851033308709 L 783.96484375 366.4608845808709 L 787.7890625 362.6366658308709 L 791.6132812499999 358.81244708087104 L 795.4374999999999 354.98822833087104 L 799.26171875 351.1640095808709 L 803.0859375 347.3397908308709 L 806.91015625 343.5155720808709 L 810.7343750000001 339.6913533308708 L 814.5585937500001 335.8671345808708 L 818.3828125 332.0429158308709 L 822.20703125 328.2186970808709 L 826.03125 324.3944783308709 L 829.85546875 320.5702595808709 L 833.6796875 316.7460408308709 L 837.50390625 312.9218220808709 L 841.3281249999999 309.09760333087104 L 845.1523437499999 305.27338458087104 L 848.9765625 301.4491658308709 L 852.80078125 297.6249470808709 L 856.625 293.8007283308709 L 860.4492187500001 289.9765095808708 L 864.2734375000001 286.1522908308708 L 868.09765625 282.3280720808709 L 871.921875 278.5038533308709 L 875.74609375 274.6796345808709 L 879.5703125 270.8554158308709 L 883.39453125 267.0311970808709 L 887.21875 263.2069783308709 L 891.04296875 259.3827595808709 L 894.8671874999999 255.55854083087104 L 898.69140625 251.73432208087092 L 902.515625 247.91010333087092 L 906.33984375 244.08588458087092 L 910.1640625000001 240.2616658308708 L 913.9882812500001 236.4374470808708 L 917.8125000000001 232.6132283308708 L 921.63671875 228.78900958087092 L 925.4609375 224.96479083087092 L 929.28515625 221.14057208087092 L 933.109375 217.31635333087092 L 936.93359375 213.49213458087092 L 940.7578125 209.66791583087092 L 944.5820312499999 205.84369708087104 L 948.40625 202.01947833087092 L 952.23046875 198.19525958087092 L 956.0546875 194.37104083087092 L 959.87890625 190.54682208087092 L 963.7031250000001 186.7226033308708 L 967.5273437500001 182.8983845808708 L 971.3515625 179.07416583087092 L 975.17578125 175.24994708087092 L 979 171.42572833087092 M 979 171.42572833087092 L 982.82421875 167.60150958087092 L 986.6484375 163.77729083087092 L 990.47265625 159.95307208087092 L 994.2968750000001 156.1288533308708 L 998.12109375 152.30463458087092 L 1001.9453125 148.48041583087092 L 1005.76953125 144.65619708087092 L 1009.59375 140.83197833087092 L 1013.41796875 137.00775958087092 L 1017.2421875000001 133.1835408308708 L 1021.0664062500001 129.3593220808708 L 1024.890625 125.53510333087092 L 1028.71484375 121.71088458087092 L 1032.5390625 117.88666583087092 L 1036.36328125 114.06244708087092 L 1040.1875 110.23822833087092 L 1044.01171875 106.41400958087092 L 1047.8359375 102.58979083087092 L 1051.66015625 98.76557208087092 L 1055.484375 94.94135333087092 L 1059.30859375 91.11713458087092 L 1063.1328125 87.29291583087092 L 1066.95703125 83.46869708087092 L 1070.78125 79.64447833087092 L 1074.60546875 75.82025958087092 L 1078.4296875 71.99604083087092 L 1082.25390625 68.17182208087092 L 1086.078125 64.34760333087092 L 1089.90234375 60.523384580870925 L 1093.7265625 56.699165830870925 L 1097.55078125 52.874947080870925 L 1101.375 49.050728330870925 L 1105.19921875 45.226509580870925 L 1109.0234375000002 41.4022908308707 L 1112.84765625 37.578072080870925 L 1116.671875 33.753853330870925 L 1120.49609375 29.929634580870925 L 1124.3203125 26.105415830870925 L 1128.14453125 22.281197080870925 L 1131.96875 18.456978330870925 L 1135.79296875 14.632759580870925 L 1139.6171875 10.808540830870925 L 1143.44140625 6.984322080870925 L 1147.265625 3.1601033308709248 L 1151.08984375 -0.6641154191290752 L 1154.9140625 -4.488334169129075 L 1158.7382812500002 -8.312552919129303" stroke-opacity="0.8" stroke-linecap="round" stroke-linejoin="round" stroke-miterlimit="10" stroke-width="2.5"/><path fill="none" stroke="rgb(211,47,47)" paint-order="fill stroke markers" d=" M 33.71394012756027 1116.7117878728618 L 34.41796875000001 1116.6817889329034 M 34.41796875000001 1116.6817889329034 L 36.33007812500001 1116.2975527952392 L 37.28613281250001 1115.9394712933772 L 38.24218750000001 1115.4707475028288 M 38.24218750000001 1115.4707475028288 L 42.06640625000001 1112.4894294537696 L 43.02246093750001 1111.4674942197885 L 43.97851562500001 1110.334916697121 L 45.89062500000001 1107.737834785726 M 45.89062500000001 1107.737834785726 L 49.71484375000001 1101.2159634986979 L 53.53906250000001 1092.9238155926853 L 55.45117187500001 1088.1138879075597 L 57.36328125000001 1082.8613910676881 L 59.275390625000014 1077.1663250730705 L 61.18750000000001 1071.0286899237067 M 61.18750000000001 1071.0286899237067 L 63.09960937500001 1064.4484856195968 L 65.01171875000001 1057.4257121607407 L 66.92382812500001 1049.9603695471385 L 68.8359375 1042.0524577787903 L 70.748046875 1033.7019768556959 L 72.66015625 1024.9089267778554 L 74.57226562500001 1015.6733075452687 L 76.48437500000001 1005.995119157936 L 77.4404296875 1000.9900615312399 L 78.39648437500001 995.8743616158572 L 79.3525390625 990.6480194117879 L 80.30859375 985.3110349190322 L 81.26464843750001 979.8634081375899 L 82.220703125 974.3051390674611 L 83.17675781250001 968.6362277086457 L 84.13281250000001 962.8566740611438 L 85.0888671875 956.9664781249555 L 86.04492187500001 950.9656399000805 L 87.00097656250001 944.8541593865191 L 87.95703125000001 938.6320365842711 L 88.9130859375 932.2992714933366 L 89.86914062500001 925.8558641137155 L 90.82519531250001 919.3018144454079 L 91.78125 912.6371224884139 L 92.73730468750001 905.8617882427332 L 93.69335937500001 898.975811708366 L 94.6494140625 891.9791928853124 L 95.60546875000001 884.8719317735721 L 96.56152343750001 877.6540283731454 L 97.51757812500001 870.3254826840321 L 98.47363281250003 862.8862947062323 L 99.4296875 855.3364644397459 L 100.3857421875 847.675991884573 L 101.34179687500003 839.9048770407136 L 102.29785156250003 832.0231199081677 L 103.25390625000003 824.0307204869353 L 104.2099609375 815.9276787770164 L 105.166015625 807.7139947784108 L 106.12207031250003 799.3896684911186 L 107.078125 790.9546999151402 L 108.03417968750003 782.4090890504749 L 108.99023437500003 773.7528358971233 L 109.9462890625 764.9859404550853 L 110.90234375 756.1084027243605 L 111.8583984375 747.1202227049494 L 112.81445312500003 738.0214003968515 L 113.77050781250003 728.8119358000672 L 114.72656250000003 719.4918289145965 L 115.68261718750003 710.061079740439 L 116.638671875 700.5196882775953 L 117.5947265625 690.8676545260649 L 118.55078125000003 681.1049784858479 L 119.5068359375 671.2316601569445 L 120.46289062500003 661.2476995393544 L 120.94091796875003 656.2142283723019 L 121.41894531250003 651.1530966330779 L 121.89697265625003 646.0643043216824 L 122.37500000000003 640.947851438115 M 122.37500000000003 640.947851438115 L 122.85302734375 635.803737982376 L 123.3310546875 630.6319639544654 L 123.80908203125 625.4325293543832 L 124.28710937500003 620.2054341821292 L 124.76513671875003 614.9506784377038 L 125.24316406250003 609.6682621211066 L 125.72119140625003 604.3581852323379 L 126.19921875 599.0204477713975 L 126.67724609375 593.6550497382855 L 127.15527343750003 588.2619911330017 L 127.63330078125003 582.8412719555465 L 128.11132812500003 577.3928922059195 L 128.58935546875003 571.916851884121 L 129.06738281250003 566.4131509901509 L 129.54541015625 560.881789524009 L 130.0234375 555.3227674856956 L 130.50146484375 549.7360848752105 L 130.97949218750003 544.1217416925538 L 131.45751953125003 538.4797379377253 L 131.93554687500003 532.8100736107255 L 132.41357421875 527.1127487115539 L 132.8916015625 521.3877632402106 L 133.36962890625 515.6351171966958 L 133.84765625000003 509.85481058100913 L 134.32568359375003 504.046843393151 L 134.80371093750003 498.2112156331211 L 135.28173828125003 492.3479273009199 L 135.759765625 486.4569783965468 L 136.23779296875 480.5383689200022 L 136.7158203125 474.5920988712859 L 137.19384765625003 468.61816825039784 L 137.67187500000003 462.6165770573383 L 138.14990234375003 456.58732529210715 L 138.62792968750003 450.5304129547043 L 139.10595703125 444.4458400451298 L 139.583984375 438.3336065633838 L 140.06201171875003 432.19371250946585 L 140.54003906250003 426.0261578833765 L 141.01806640625003 419.8309426851155 L 141.49609375000003 413.6080669146829 L 141.97412109375 407.35753057207864 L 142.4521484375 401.07933365730287 L 142.93017578125 394.77347617035537 L 143.408203125 388.43995811123625 L 143.88623046875003 382.0787794799453 L 144.36425781250003 375.68994027648284 L 144.84228515625003 369.2734405008489 L 145.3203125 362.8292801530432 L 145.79833984375 356.3574592330658 L 146.27636718750003 349.8579777409168 L 146.75439453125003 343.33083567659617 L 147.23242187500003 336.77603304010404 L 147.71044921875003 330.1935698314402 L 148.18847656250003 323.5834460506047 L 148.66650390625 316.94566169759764 L 149.14453125 310.28021677241895 L 149.62255859375 303.58711127506854 L 150.1005859375 296.8663452055466 L 150.57861328125003 290.11791856385287 L 151.05664062500003 283.3418313499876 L 151.53466796875003 276.53808356395064 L 152.0126953125 269.70667520574216 L 152.49072265625 262.84760627536195 L 152.96875000000003 255.96087677281002 L 153.44677734375003 249.0464866980866 L 153.92480468750003 242.10443605119167 L 154.40283203125003 235.1347248321249 L 154.880859375 228.13735304088664 L 155.35888671875 221.11232067747665 L 155.8369140625 214.05962774189516 L 156.31494140625 206.97927423414194 L 156.79296875 199.871260154217 L 157.27099609375003 192.73558550212044 L 157.74902343750003 185.57225027785228 L 158.22705078125 178.3812544814126 L 158.70507812500003 171.162598112801 L 159.18310546875003 163.916281172018 L 159.66113281250003 156.64230365906337 L 160.13916015625003 149.34066557393714 L 160.61718750000003 142.0113669166392 L 161.09521484375003 134.65440768716974 L 161.5732421875 127.26978788552856 L 162.05126953125003 119.85750751171577 L 162.52929687500003 112.41756656573136 L 163.00732421875 104.94996504757535 L 163.48535156250003 97.45470295724749 L 163.96337890625003 89.93178029474802 L 164.44140625000003 82.38119706007706 L 164.91943359375003 74.80295325323459 L 165.39746093750003 67.19704887422017 L 165.87548828125003 59.563483923034255 L 166.35351562500003 51.90225839967684 L 166.83154296875003 44.2133723041477 L 167.30957031250003 36.496825636447056 L 167.78759765625003 28.752618396574462 L 168.26562500000003 20.980750584530597 L 168.74365234375003 13.181222200315005 L 169.2216796875 5.354033243927688 L 169.69970703125 -2.5008162846313553 L 170.1544879101757 -10" stroke-opacity="0.8" stroke-linecap="round" stroke-linejoin="round" stroke-miterlimit="10" stroke-width="2.5"/><path fill="none" stroke="rgb(21,101,192)" paint-order="fill stroke markers" d=" M 66.75883015438805 1083.6668980844024 L 68.8359375 1082.1916448330196 M 68.8359375 1082.1916448330196 L 72.66015625 1079.5894398099847 L 76.484375 1077.121951067463 M 76.484375 1077.121951067463 L 80.30859375 1074.775913965068 L 84.1328125 1072.5399314039616 L 87.95703125000001 1070.4041389087918 L 91.78125 1068.3599415776919 M 91.78125 1068.3599415776919 L 95.60546875 1066.3998051533097 L 99.4296875 1064.5170883791955 L 103.25390625000003 1062.7059072227905 L 107.078125 1060.9610239616088 L 110.90234375 1059.2777558616126 L 114.72656250000003 1057.6518994361115 L 118.55078125000003 1056.0796672002964 L 122.37500000000003 1054.557634526416 M 122.37500000000003 1054.557634526416 L 126.19921875 1053.0826947236085 L 130.0234375 1051.652020860724 L 133.84765625000003 1050.2630331528258 L 137.67187500000003 1048.9133709658872 L 141.49609375000003 1047.600868676505 L 145.3203125 1046.3235347666493 L 149.14453125 1045.0795336467734 L 152.96875000000003 1043.867169790828 L 156.79296875 1042.6848738390631 L 160.61718750000003 1041.5311903828028 L 164.44140625000003 1040.404767192673 L 168.26562500000003 1039.3043456903197 L 172.08984375000003 1038.2287524952324 L 175.9140625 1037.176891904317 L 179.73828125000003 1036.1477391833698 L 183.5625 1035.1403345674905 L 187.38671875000003 1034.153777882388 L 191.21093750000003 1033.1872237110354 L 195.03515625 1032.239877040635 L 198.85937500000003 1031.310989333737 L 202.68359375000003 1030.3998549748576 L 206.50781250000003 1029.50580805034 L 210.33203125 1028.6282194246476 L 214.15625000000003 1027.7664940809293 L 217.98046875000003 1026.920068697706 L 221.8046875 1026.0884094369535 L 225.62890625000003 1025.2710099218373 L 229.45312500000003 1024.4673893849106 L 233.27734375000003 1023.6770909698199 L 237.10156250000003 1022.8996801714965 L 240.92578125000003 1022.1347434014993 L 244.75000000000003 1021.3818866666512 M 244.75000000000003 1021.3818866666512 L 248.57421875000003 1020.6407343503957 L 252.39843750000003 1019.9109280874425 L 256.22265625 1019.192125723258 L 260.046875 1018.4840003508405 L 263.87109375 1017.7862394179917 L 267.6953125 1017.0985438989817 L 271.51953125 1016.4206275251133 L 275.34375 1015.7522160692324 L 279.16796875 1015.0930466797038 L 282.9921875 1014.4428672598095 L 286.81640625 1013.8014358888997 L 290.640625 1013.16852028197 L 294.46484375000006 1012.5438972846445 L 298.2890625 1011.9273524008181 L 302.11328125 1011.3186793504543 L 305.93750000000006 1010.717679655258 L 309.76171875 1010.1241622501416 L 313.5859375 1009.53794311858 L 317.41015625000006 1008.9588449501141 L 321.234375 1008.3866968184087 L 325.05859375 1007.8213338783993 L 328.8828125 1007.2625970811886 L 332.70703125000006 1006.7103329054571 L 336.53125 1006.1643931042532 L 340.35546875000006 1005.6246344661188 L 344.17968750000006 1005.0909185895858 L 348.00390625 1004.5631116701579 L 351.828125 1004.041084298954 L 355.65234375 1003.5247112722583 L 359.4765625 1003.0138714112738 L 363.30078125 1002.5084473914317 L 367.12500000000006 1002.0083255806529 L 370.94921875000006 1001.513395886008 L 374.7734375 1001.0235516082522 L 378.59765625 1000.5386893037606 L 382.421875 1000.0587086534122 L 386.24609375 999.5835123380097 L 390.07031250000006 999.1130059198466 L 393.89453125000006 998.6470977300623 L 397.71875 998.1856987614481 L 401.54296875 997.7287225663903 L 405.3671875 997.2760851596599 L 409.19140625000006 996.8277049257724 L 413.015625 996.3835025306646 L 416.83984375000006 995.9434008374479 L 420.66406250000006 995.507324826015 L 424.48828125 995.0752015162897 L 428.3125 994.6469598949251 L 432.13671875 994.2225308452637 L 435.96093750000006 993.8018470803887 L 439.78515625 993.3848430791024 L 443.60937500000006 992.9714550246817 L 447.43359375000006 992.5616207462651 L 451.2578125 992.1552796627384 L 455.08203125 991.752372728991 L 458.90625 991.3528423844249 L 462.73046875 990.9566325036033 L 466.5546875 990.5636883489325 L 470.37890625000006 990.1739565252791 L 474.20312500000006 989.7873849364262 L 478.02734375 989.4039227432812 L 481.8515625 989.0235203237517 L 485.67578125 988.6461292342078 L 489.5 988.2717021724606 M 489.5 988.2717021724606 L 493.32421875 987.9001929421798 L 497.14843750000006 987.5315564186905 L 500.97265625 987.1657485160791 L 504.796875 986.8027261555544 L 508.62109375 986.4424472350023 L 512.4453125 986.0848705996827 L 516.26953125 985.7299560140186 L 520.09375 985.377664134425 L 523.91796875 985.0279564831368 L 527.7421875 984.6807954229882 L 531.56640625 984.3361441331044 L 535.390625 983.9939665854656 L 539.21484375 983.6542275223055 L 543.0390625 983.3168924343108 L 546.86328125 982.9819275395846 L 550.6875 982.649299763346 L 554.51171875 982.3189767183308 L 558.3359374999999 981.9909266858681 L 562.16015625 981.6651185976033 L 565.984375 981.3415220178404 L 569.80859375 981.0201071264805 L 573.6328125 980.7008447025319 L 577.45703125 980.3837061081672 L 581.28125 980.0686632733091 L 585.1054687499999 979.7556886807207 L 588.9296874999999 979.4447553515823 L 592.75390625 979.1358368315366 L 596.578125 978.8289071771811 L 600.40234375 978.5239409429951 L 604.2265625 978.2209131686792 L 608.05078125 977.9197993668979 L 611.8749999999999 977.6205755114039 L 615.69921875 977.3232180255347 L 619.5234375 977.027703771065 L 623.34765625 976.7340100374029 L 627.171875 976.4421145311155 L 630.99609375 976.1519953657756 L 634.8203125 975.8636310521135 L 638.6445312499999 975.5770004884653 L 642.4687499999999 975.2920829515073 L 646.29296875 975.0088580872646 L 650.1171875 974.7273059023863 L 653.94140625 974.4474067556763 L 657.765625 974.1691413498706 L 661.5898437499999 973.8924907236548 L 665.4140625 973.6174362439099 L 669.23828125 973.3439595981827 L 673.0625 973.0720427873686 L 676.88671875 972.8016681186041 L 680.7109375 972.5328181983581 L 684.53515625 972.2654759257176 L 688.3593749999999 971.9996244858605 L 692.1835937499999 971.7352473437096 L 696.0078125 971.4723282377612 L 699.83203125 971.2108511740832 L 703.65625 970.9508004204768 L 707.48046875 970.6921605007967 L 711.3046875 970.4349161894243 L 715.12890625 970.1790525058896 L 718.953125 969.9245547096361 L 722.77734375 969.6714082949253 L 726.6015625 969.4195989858754 L 730.42578125 969.1691127316302 L 734.25 968.9199357016548 L 738.0742187499999 968.6720542811531 L 741.8984374999999 968.4254550666041 L 745.72265625 968.1801248614127 L 749.546875 967.9360506716723 L 753.37109375 967.6932197020353 L 757.1953125 967.4516193516877 L 761.0195312500001 967.2112372104252 L 764.84375 966.9720610548292 L 768.66796875 966.734078844536 L 772.4921875 966.4972787186002 L 776.31640625 966.2616489919476 L 780.140625 966.027178151915 L 783.96484375 965.7938548548753 L 787.7890625 965.561667922944 L 791.6132812499999 965.3306063407663 L 795.4374999999999 965.1006592523811 L 799.26171875 964.8718159581607 L 803.0859375 964.644065911823 L 806.91015625 964.4173987175157 L 810.7343750000001 964.1918041269682 L 814.5585937500001 963.9672720367121 L 818.3828125 963.7437924853652 L 822.20703125 963.5213556509805 L 826.03125 963.2999518484548 L 829.85546875 963.079571527 L 833.6796875 962.8602052676692 L 837.50390625 962.6418437809425 L 841.3281249999999 962.4244779043656 L 845.1523437499999 962.2080986002436 L 848.9765625 961.9926969533858 L 852.80078125 961.7782641689016 L 856.625 961.564791570046 L 860.4492187500001 961.3522705961129 L 864.2734375000001 961.1406928003748 L 868.09765625 960.9300498480688 L 871.921875 960.7203335144262 L 875.74609375 960.5115356827456 L 879.5703125 960.3036483425078 L 883.39453125 960.0966635875318 L 887.21875 959.890573614171 L 891.04296875 959.685370719547 L 894.8671874999999 959.4810472998228 L 898.69140625 959.2775958485117 L 902.515625 959.075008954823 L 906.33984375 958.8732793020416 L 910.1640625000001 958.672399665943 L 913.9882812500001 958.4723629132404 L 917.8125000000001 958.2731620000657 L 921.63671875 958.0747899704796 L 925.4609375 957.877239955016 L 929.28515625 957.6805051692534 L 933.109375 957.4845789124171 L 936.93359375 957.2894545660099 L 940.7578125 957.0951255924706 L 944.5820312499999 956.9015855338594 L 948.40625 956.7088280105703 L 952.23046875 956.5168467200697 L 956.0546875 956.3256354356594 L 959.87890625 956.1351880052647 L 963.7031250000001 955.9454983502474 L 967.5273437500001 955.7565604642408 L 971.3515625 955.5683684120091 L 975.17578125 955.3809163283286 L 979 955.1941984168905 M 979 955.1941984168905 L 982.82421875 955.0082089492258 L 986.6484375 954.8229422636508 L 990.47265625 954.6383927642327 L 994.2968750000001 954.4545549197753 L 998.12109375 954.271423262825 L 1001.9453125 954.0889923886942 L 1005.76953125 953.907256954505 L 1009.59375 953.7262116782497 L 1013.41796875 953.5458513378699 L 1017.2421875000001 953.3661707703528 L 1021.0664062500001 953.1871648708443 L 1024.890625 953.0088285917786 L 1028.71484375 952.8311569420246 L 1032.5390625 952.654144986047 L 1036.36328125 952.4777878430842 L 1040.1875 952.3020806863412 L 1044.01171875 952.1270187421959 L 1047.8359375 951.9525972894214 L 1051.66015625 951.7788116584225 L 1055.484375 951.6056572304846 L 1059.30859375 951.4331294370378 L 1063.1328125 951.261223758934 L 1066.95703125 951.0899357257355 L 1070.78125 950.9192609150184 L 1074.60546875 950.7491949516873 L 1078.4296875 950.5797335073019 L 1082.25390625 950.4108722994165 L 1086.078125 950.2426070909305 L 1089.90234375 950.0749336894503 L 1093.7265625 949.9078479466627 L 1097.55078125 949.7413457577193 L 1101.375 949.5754230606308 L 1105.19921875 949.4100758356728 L 1109.0234375000002 949.2453001048017 L 1112.84765625 949.0810919310798 L 1116.671875 948.9174474181116 L 1120.49609375 948.7543627094885 L 1124.3203125 948.5918339882439 L 1128.14453125 948.4298574763167 L 1131.96875 948.2684294340247 L 1135.79296875 948.1075461595465 L 1139.6171875 947.9472039884124 L 1143.44140625 947.7873992930027 L 1147.265625 947.6281284820562 L 1151.08984375 947.4693880001856 L 1154.9140625 947.3111743274011 L 1158.7382812500002 947.1534839786423 L 1162.5624999999998 946.9963135033172 L 1166.38671875 946.8396594848501 L 1170.2109375 946.6835185402349 L 1174.03515625 946.5278873195969 L 1177.859375 946.3727625057622 L 1181.68359375 946.2181408138332 L 1185.5078125 946.0640189907707 L 1189.33203125 945.9103938149839 L 1193.15625 945.7572620959261 L 1196.98046875 945.6046206736969 L 1200.8046875 945.4524664186515 L 1204.62890625 945.3007962310153 L 1208.4531250000002 945.1496070405046 L 1212.27734375 944.9988958059546 L 1216.1015625 944.8486595149517 L 1219.92578125 944.6988951834722 L 1223.75 944.5495998555272 L 1227.57421875 944.4007706028117 L 1231.3984375 944.2524045243608 L 1235.22265625 944.1044987462102 L 1239.046875 943.9570504210614 L 1242.87109375 943.8100567279539 L 1246.6953125 943.6635148719408 L 1250.51953125 943.5174220837703 L 1254.34375 943.3717756195707 L 1258.1679687500002 943.2265727605427 L 1261.9921875 943.0818108126538 L 1265.8164062500002 942.9374871063384 L 1269.640625 942.7935989962032 L 1273.46484375 942.6501438607353 L 1277.2890625 942.5071191020163 L 1281.11328125 942.3645221454399 L 1284.9375 942.2223504394335 L 1288.76171875 942.0806014551843 L 1292.5859375 941.93927268637 L 1296.41015625 941.7983616488921 L 1300.234375 941.6578658806143 L 1304.05859375 941.5177829411044 L 1307.8828125000002 941.3781104113801 L 1311.70703125 941.238845893658 L 1315.5312500000002 941.0999870111066 L 1319.3554687499998 940.9615314076033 L 1323.1796875 940.8234767474942 L 1327.00390625 940.6858207153576 L 1330.828125 940.5485610157718 L 1334.65234375 940.4116953730841 L 1338.4765625 940.2752215311855 L 1342.30078125 940.139137253287 L 1346.125 940.0034403217 L 1349.94921875 939.8681285376192 L 1353.7734375 939.7331997209089 L 1357.59765625 939.5986517098922 L 1361.421875 939.4644823611433 L 1365.2460937500002 939.3306895492823 L 1369.0703124999998 939.1972711667738 L 1372.89453125 939.064225123727 L 1376.71875 938.9315493477 L 1380.54296875 938.7992417835053 L 1384.3671875 938.6673003930193 L 1388.19140625 938.5357231549942 L 1392.015625 938.4045080648714 L 1395.83984375 938.2736531345987 L 1399.6640625 938.1431563924498 L 1403.48828125 938.0130158828456 L 1407.3125 937.8832296661786 L 1411.13671875 937.7537958186396 L 1414.9609375000002 937.624712432046 L 1418.78515625 937.4959776136736 L 1422.609375 937.3675894860902 L 1426.43359375 937.2395461869905 L 1430.2578125 937.1118458690348 L 1434.08203125 936.9844866996887 L 1437.90625 936.8574668610654 L 1441.73046875 936.7307845497703 L 1445.5546875 936.6044379767466 L 1449.37890625 936.4784253671246 L 1453.203125 936.3527449600715 L 1457.02734375 936.2273950086441 L 1460.8515625 936.1023737796428 L 1464.6757812500002 935.9776795534681 L 1468.5 935.8533106239786 L 1472.32421875 935.7292652983506 L 1476.1484375 935.6055418969404 L 1479.97265625 935.4821387531476 L 1483.796875 935.3590542132802 L 1487.62109375 935.2362866364219 L 1491.4453125 935.1138343943009 L 1495.26953125 934.9916958711597 L 1499.09375 934.869869463628 L 1502.91796875 934.748353580596 L 1506.7421875 934.62714664309 L 1510.56640625 934.5062470841485 L 1514.3906250000002 934.3856533487016 L 1518.21484375 934.2653638934505 L 1522.0390625000002 934.1453771867493 L 1525.8632812499998 934.0256917084874 L 1529.6875 933.9063059499746 L 1533.51171875 933.7872184138265 L 1537.3359375 933.6684276138523 L 1541.16015625 933.549932074943 L 1544.984375 933.4317303329617 L 1548.80859375 933.3138209346354 L 1552.6328125 933.1962024374473 L 1556.45703125 933.0788734095307 L 1560.28125 932.9618324295657 L 1564.1054687500002 932.845078086674 L 1567.9296875 932.7286089803185 L 1571.7539062500002 932.6124237202016 L 1575.5781249999998 932.4965209261659 L 1579.40234375 932.3808992280958 L 1583.2265624999998 932.26555726582 L 1587.05078125 932.1504936890165 L 1590.875 932.0357071571162 L 1594.69921875 931.9211963392108 L 1598.5234375 931.806959913959 L 1602.34765625 931.6929965694953 L 1606.171875 931.5793050033403 L 1609.99609375 931.4658839223106 L 1613.8203125000002 931.3527320424306 L 1617.64453125 931.2398480888456 L 1621.4687500000002 931.1272307957358 L 1625.2929687499998 931.0148789062304 L 1629.1171875 930.9027911723239 L 1632.9414062499998 930.7909663547932 L 1636.765625 930.6794032231151 L 1640.58984375 930.5681005553843 L 1644.4140625 930.4570571382347 L 1648.23828125 930.346271766759 L 1652.0625 930.2357432444298 L 1655.88671875 930.1254703830235 L 1659.7109375 930.0154520025424 L 1663.5351562500002 929.9056869311394 L 1667.359375 929.7961740050431 L 1671.1835937500002 929.6869120684839 L 1675.0078125 929.5778999736204 L 1678.83203125 929.4691365804676 L 1682.6562499999998 929.360620756825 L 1686.48046875 929.2523513782057 L 1690.3046875 929.1443273277671 L 1694.12890625 929.0365474962412 L 1697.953125 928.9290107818664 L 1701.77734375 928.8217160903205 L 1705.6015625 928.7146623346528 L 1709.42578125 928.6078484352189 L 1713.25 928.501273319615 L 1717.07421875 928.3949359226135 L 1720.8984375000002 928.2888351860989 L 1724.72265625 928.1829700590047 L 1728.5468750000002 928.0773394972509 L 1732.3710937499998 927.9719424636825 L 1736.1953125 927.8667779280079 L 1740.01953125 927.7618448667388 L 1743.84375 927.6571422631305 L 1747.66796875 927.5526691071226 L 1751.4921875 927.4484243952805 L 1755.31640625 927.3444071307379 L 1759.140625 927.2406163231387 L 1762.96484375 927.1370509885821 L 1766.7890625 927.033710149565 L 1770.6132812500002 926.9305928349272 L 1774.4375 926.827698079797 L 1778.2617187500002 926.7250249255367 L 1782.0859374999998 926.6225724196887 L 1785.91015625 926.5203396159234 L 1789.7343749999998 926.4183255739857 L 1793.55859375 926.3165293596439 L 1797.3828125 926.214950044638 L 1801.20703125 926.1135867066289 L 1805.03125 926.0124384291482 L 1808.85546875 925.9115043015486 L 1812.6796875 925.8107834189548 L 1816.50390625 925.7102748822141 L 1820.3281250000002 925.6099777978493 L 1824.15234375 925.5098912780104 L 1827.9765625000002 925.4100144404275 L 1831.8007812499998 925.3103464083642 L 1835.625 925.2108863105714 L 1839.4492187499998 925.1116332812418 L 1843.2734375 925.0125864599643 L 1847.09765625 924.9137449916793 L 1850.921875 924.8151080266352 L 1854.74609375 924.7166747203435 L 1858.5703125 924.6184442335356 L 1862.39453125 924.5204157321207 L 1866.21875 924.4225883871421 L 1870.0429687500002 924.3249613747363 L 1873.8671875 924.2275338760905 L 1877.6914062500002 924.130305077402 L 1881.515625 924.0332741698367 L 1885.33984375 923.9364403494895 L 1889.1640624999998 923.839802817344 L 1892.98828125 923.743360779233 L 1896.8125 923.6471134457987 L 1900.63671875 923.5510600324554 L 1904.4609375 923.4551997593497 L 1908.28515625 923.3595318513231 L 1912.109375 923.2640555378745 L 1915.93359375 923.1687700531226 L 1919.7578125000002 923.0736746357694 L 1923.58203125 922.9787685290636 L 1927.4062500000002 922.8840509807642 L 1931.23046875 922.7895212431052 L 1935.0546875 922.6951785727599 L 1938.8789062499998 922.6010222308055 L 1942.703125 922.5070514826891 L 1946.52734375 922.4132655981929 L 1950.3515625 922.3196638514 L 1954.17578125 922.2262455206612 L 1958 922.1330098885609" stroke-opacity="0.8" stroke-linecap="round" stroke-linejoin="round" stroke-miterlimit="10" stroke-width="2.5"/><path fill="none" stroke="rgb(101,87,210)" paint-order="fill stroke markers" d=" M 66.75883015438805 1083.6668984148514 L 68.8359375 1080.0218076444473 M 68.8359375 1080.0218076444473 L 72.66015625 1072.959940698051 L 76.484375 1065.4701428790759 M 76.484375 1065.4701428790759 L 80.30859375 1057.5804818329889 L 84.1328125 1049.3157342816842 L 87.95703125000001 1040.6979168906191 L 91.78125 1031.746710867946 M 91.78125 1031.746710867946 L 95.60546875 1022.4798052763006 L 99.4296875 1012.9131773744211 L 103.25390625000003 1003.0613236127808 L 105.166015625 998.0326101656087 L 107.078125 992.9374515497104 L 108.99023437500003 987.7773236637987 L 110.90234375 982.5536405172419 L 112.81445312500003 977.2677579513456 L 114.72656250000003 971.9209770732439 L 116.638671875 966.5145474292601 L 118.55078125000003 961.0496699416736 L 120.46289062500003 955.5274996302596 L 122.37500000000003 949.9491481377203 M 122.37500000000003 949.9491481377203 L 124.28710937500003 944.3156860761416 L 126.19921875 938.6281452098629 L 128.11132812500003 932.8875204885983 L 130.0234375 927.0947719432854 L 131.93554687500003 921.250826455915 L 133.84765625000003 915.3565794135238 L 135.759765625 909.4128962555644 L 137.67187500000003 903.4206139230096 L 139.583984375 897.3805422167852 L 141.49609375000003 891.2934650724334 L 143.408203125 885.1601417572941 L 145.3203125 878.9813079959436 L 147.23242187500003 872.7576770291234 L 149.14453125 866.4899406109529 L 151.05664062500003 860.1787699488063 L 152.96875000000003 853.8248165898785 L 154.880859375 847.4287132581233 L 156.79296875 840.9910746449559 L 158.70507812500003 834.5124981568388 L 160.61718750000003 827.9935646226172 L 162.52929687500003 821.434838963253 L 164.44140625000003 814.8368708263995 L 166.35351562500003 808.2001951880699 L 168.26562500000003 801.5253329234872 L 170.177734375 794.8127913490432 L 172.08984375000003 788.0630647371568 L 174.00195312500003 781.2766348056871 L 175.9140625 774.4539711834404 L 177.82617187500003 767.5955318532014 L 179.73828125000003 760.7017635736147 L 181.65039062500003 753.7731022811537 L 183.5625 746.8099734733282 L 185.47460937500003 739.8127925742028 L 187.38671875000003 732.7819652832256 L 189.29882812500003 725.7178879083026 L 191.21093750000003 718.6209476839891 L 193.12304687500003 711.4915230756123 L 195.03515625 704.3299840700898 L 196.947265625 697.136692454156 L 198.85937500000003 689.9120020806661 L 200.77148437500003 682.6562591236043 L 202.68359375000003 675.3698023223839 L 204.59570312500003 668.0529632159908 L 206.50781250000003 660.7060663674899 L 208.419921875 653.3294295793808 L 210.33203125 645.923364100259 L 212.24414062500003 638.4881748232184 L 214.15625000000003 631.024160476394 L 216.06835937500003 623.5316138060332 L 217.98046875000003 616.0108217524526 L 219.89257812500003 608.4620656192202 L 221.8046875 600.8856212358851 L 223.716796875 593.2817591145557 L 225.62890625000003 585.650744600613 L 227.54101562500003 577.9928380178296 L 229.45312500000003 570.3082948081485 L 231.36523437500003 562.5973656663642 L 233.27734375000003 554.8602966699362 L 235.189453125 547.0973294041478 L 237.10156250000003 539.3087010828197 L 239.01367187500003 531.4946446647696 L 240.92578125000003 523.6553889662047 L 242.83789062500003 515.791158769219 L 244.75000000000003 507.9021749265652 M 244.75000000000003 507.9021749265652 L 246.662109375 499.9886544628564 L 248.57421875000003 492.05081067234653 L 250.48632812500003 484.08885321343666 L 252.39843750000003 476.10298820003527 L 254.31054687500003 468.0934182899076 L 256.22265625 460.06034277013407 L 258.134765625 452.0039576397925 L 260.046875 443.92445568997846 L 261.958984375 435.82202658126846 L 263.87109375 427.69685691872473 L 265.783203125 419.5491303245401 L 267.6953125 411.37902750841386 L 269.607421875 403.18672633574533 L 271.51953125 394.97240189373065 L 273.431640625 386.73622655543784 L 275.34375 378.47837004194275 L 277.255859375 370.1989994825931 L 279.16796875 361.8982794734709 L 281.080078125 353.57637213412454 L 282.9921875 345.2334371626264 L 284.904296875 336.86963188902155 L 286.81640625 328.48511132722615 L 288.728515625 320.0800282254271 L 290.640625 311.6545331150428 L 292.55273437500006 303.20877435828504 L 294.46484375000006 294.7428981943867 L 296.376953125 286.2570487845247 L 298.2890625 277.7513682554978 L 300.201171875 269.2259967421928 L 302.11328125 260.68107242888493 L 304.02539062500006 252.1167315894096 L 305.93750000000006 243.533108626248 L 307.849609375 234.93033610855537 L 309.76171875 226.30854480917367 L 311.673828125 217.6678637406617 L 313.5859375 209.00842019036997 L 315.49804687500006 200.33033975459773 L 317.41015625000006 191.6337463718578 L 319.32226562500006 182.91876235527855 L 321.234375 174.18550842417267 L 323.146484375 165.43410373479855 L 325.05859375 156.66466591033668 L 326.970703125 147.87731107011086 L 328.8828125 139.07215385807388 L 330.79492187500006 130.24930747058238 L 332.70703125000006 121.40888368348283 L 334.619140625 112.55099287852852 L 336.53125 103.67574406914844 L 338.443359375 94.78324492558988 L 340.35546875000006 85.87360179944972 L 342.26757812500006 76.94691974761759 L 344.17968750000006 68.00330255564131 L 346.091796875 59.0428527605402 L 348.00390625 50.06567167307685 L 349.916015625 41.07185939950455 L 351.828125 32.06151486280555 L 353.740234375 23.03473582343713 L 355.65234375 13.991618899595323 L 357.56445312500006 4.932259587013277 L 359.4765625 -4.143247721690841 L 361.388671875 -13.234809718110682 M 979 -3503.679611814087" stroke-opacity="0.8" stroke-linecap="round" stroke-linejoin="round" stroke-miterlimit="10" stroke-width="2.5"/><path fill="none" stroke="rgb(153,102,0)" paint-order="fill stroke markers" d=" M 33.71394045800917 1017.5771177923784 L 1963 1017.5771177923783" stroke-opacity="0.6980392156862745" stroke-linecap="round" stroke-linejoin="round" stroke-miterlimit="10" stroke-width="2.5"/><g transform="scale(31,31)"><g transform="translate(5.290322580645161,11.743059741935484)"><path fill="rgb(211,47,47)" stroke="none" paint-order="stroke fill markers" d=" M 0.22 -0.6940000000000001 L 0.465 -0.20800000000000002 Q 0.488 -0.165 0.532 -0.07100000000000001 L 0.533 -0.07100000000000001 L 0.533 -0.6940000000000001 L 0.611 -0.6940000000000001 L 0.611 0 L 0.487 0 L 0.242 -0.486 Q 0.219 -0.529 0.17500000000000002 -0.623 L 0.17400000000000002 -0.623 L 0.17400000000000002 0 L 0.096 0 L 0.096 -0.6940000000000001 L 0.22 -0.6940000000000001 Z"/></g><g transform="translate(5.998322580645161,11.330167741935485) scale(0.7,0.7)"><path fill="rgb(211,47,47)" stroke="none" paint-order="stroke fill markers" d=" M 0.17400000000000002 -0.188 L 0.251 -0.259 Q 0.281 -0.29 0.2955 -0.3055 Q 0.31 -0.321 0.33 -0.34900000000000003 Q 0.35000000000000003 -0.377 0.3585 -0.404 Q 0.367 -0.431 0.367 -0.461 Q 0.367 -0.523 0.328 -0.5685 Q 0.289 -0.614 0.222 -0.614 Q 0.161 -0.614 0.1315 -0.5730000000000001 Q 0.10200000000000001 -0.532 0.083 -0.459 Q 0.066 -0.484 0.061 -0.488 Q 0.06 -0.489 0.0545 -0.4965 Q 0.049 -0.504 0.042 -0.514 Q 0.088 -0.678 0.23600000000000002 -0.678 Q 0.332 -0.678 0.3905 -0.6155 Q 0.449 -0.553 0.449 -0.463 Q 0.449 -0.424 0.4315 -0.3865 Q 0.41400000000000003 -0.34900000000000003 0.398 -0.3305 Q 0.382 -0.312 0.35000000000000003 -0.28 Q 0.34 -0.271 0.3055 -0.241 Q 0.271 -0.211 0.261 -0.202 Q 0.254 -0.196 0.1975 -0.14100000000000001 Q 0.14100000000000001 -0.08600000000000001 0.122 -0.07 L 0.231 -0.07 Q 0.23700000000000002 -0.07 0.249 -0.07050000000000001 Q 0.261 -0.07100000000000001 0.267 -0.07100000000000001 L 0.449 -0.07100000000000001 L 0.449 0 L 0.05 0 L 0.05 -0.064 L 0.17400000000000002 -0.188 Z"/></g></g><text fill="rgb(101,87,210)" stroke="none" font-family="geogebra-sans-serif, sans-serif" font-size="28px" font-style="normal" font-weight="normal" text-decoration="normal" x="281" y="453" text-anchor="start" dominant-baseline="alphabetic" fill-opacity="1">N * log(N)</text><text fill="rgb(46,125,50)" stroke="none" font-family="geogebra-sans-serif, sans-serif" font-size="28px" font-style="normal" font-weight="normal" text-decoration="normal" x="595" y="597" text-anchor="start" dominant-baseline="alphabetic" fill-opacity="1">N</text><text fill="rgb(21,101,192)" stroke="none" font-family="geogebra-sans-serif, sans-serif" font-size="28px" font-style="normal" font-weight="normal" text-decoration="normal" x="1090" y="925" text-anchor="start" dominant-baseline="alphabetic" fill-opacity="1">log(N)</text><text fill="rgb(153,102,0)" stroke="none" font-family="geogebra-sans-serif, sans-serif" font-size="28px" font-style="normal" font-weight="normal" text-decoration="normal" x="1376" y="1057" text-anchor="start" dominant-baseline="alphabetic" fill-opacity="1">1</text></g></g></svg>