<svg version="1.1" xmlns="http://www.w3.org/2000/svg" viewBox="0 0 592.9999999999998 277.8620635668436" width="592.9999999999998" height="277.8620635668436">
  <!-- svg-source:excalidraw -->
  
  <defs>
    <style>
      @font-face {
        font-family: "Virgil";
        src: url("https://excalidraw.com/Virgil.woff2");
      }
      @font-face {
        font-family: "Cascadia";
        src: url("https://excalidraw.com/Cascadia.woff2");
      }
    </style>
  </defs>
  <rect x="0" y="0" width="592.9999999999998" height="277.8620635668436" fill="#ffffff"></rect><g stroke-linecap="round" transform="translate(10 68.03982330858713) rotate(0 71.33333333333331 89.33333333333331)"><path d="M0 0 C0 0, 0 0, 0 0 M0 0 C0 0, 0 0, 0 0 M-0.23 7.17 C1.82 3.71, 3.93 2.19, 5.15 1.08 M0.04 6.62 C1.88 4.06, 3.24 2.49, 5.02 0.33 M-0.85 11.09 C3.36 6.22, 9.19 2.96, 11.55 -1.09 M0.91 12.64 C2.83 8.96, 5.24 6.98, 10.11 0.17 M-1.57 16.73 C6.07 11.3, 9.58 4.15, 16.61 -1.26 M0.07 18.13 C2.8 14.4, 7.22 10.96, 15.37 0.48 M1.67 22.53 C9.22 16.66, 16.94 5.2, 20.37 0.62 M0.87 24.07 C7.17 15.35, 15.18 9.08, 20.9 -0.5 M-1.17 30.11 C6.41 23.18, 12.46 12.41, 25.29 1.04 M-0.09 30.24 C9.38 18.78, 20.74 8.02, 25.79 -0.32 M0.38 36.67 C11.93 23.28, 24.36 6.5, 33.22 0.57 M0.71 35.91 C10.24 25.68, 20.63 14.45, 31.67 -0.35 M-0.14 44.21 C12.17 28.42, 26.33 13.04, 37.23 0.85 M-0.41 42.65 C9.92 31.17, 19.37 21.86, 36.94 0.72 M0.64 49.07 C16.17 33.42, 28.85 15.86, 43.56 1.84 M-0.69 48.91 C9.12 37.4, 18.73 26.39, 41.68 -0.78 M1.27 55.88 C12.14 40.69, 23.4 30.95, 47.12 -0.91 M-0.73 55.17 C13.43 39.08, 26.35 23.44, 48 0.88 M-1.02 62.88 C17.65 38.04, 40.3 14.19, 53.51 0.93 M-0.06 60.33 C10.86 49.05, 22.92 35.77, 52.91 -0.8 M-0.98 67.86 C16.41 47.88, 29.47 33.28, 58.51 1.79 M-1 66.81 C20.18 43.09, 41.22 19.77, 58.7 -0.14 M1.44 73.66 C16.77 55.14, 33.57 35.5, 62.07 -0.58 M1.08 73.16 C14.97 56.24, 30.02 38.42, 63.85 -0.96 M-0.1 77.73 C16.61 61.24, 32.18 45.83, 67.82 0.13 M-0.65 78.73 C14.05 62.42, 29.15 44.8, 69.35 -0.17 M-1.03 86.06 C24.61 56.5, 47.94 29.99, 73.08 0.06 M-0.21 84.78 C21.51 59.28, 45.2 32.76, 73.61 0.59 M1.64 90.48 C29.38 56.75, 55.77 23.38, 80.35 -1.6 M-0.49 90.82 C18.37 70.07, 37.42 47.55, 78.82 -0.64 M-1.31 98.64 C19.56 73.88, 39.32 51.76, 83.31 -1.32 M-0.97 97.79 C22.29 71.95, 44.68 45.31, 85.82 0.18 M-0.54 103.47 C32.49 63.17, 66.8 26.14, 90.29 2.01 M-0.13 102.62 C22.89 77.68, 45.54 53, 90.52 -0.5 M-1.39 108.79 C19.91 84.17, 38.6 64.17, 94.35 0.28 M0.28 108.95 C22.14 86.97, 44.16 60.57, 94.7 0.53 M1.49 115.18 C23.28 89.87, 44.44 63.91, 100.69 1.5 M-0.61 116.14 C33.68 81.06, 64.43 44.64, 100.45 -0.31 M-0.38 121.32 C25.57 91.07, 55.19 57.71, 104.71 -1.05 M-0.36 121.74 C32.72 83.66, 67.52 44.94, 107.01 -1.15 M0.06 129.95 C35.04 86.84, 68.75 50.82, 111.47 0.53 M-1.06 128.56 C37.49 83.15, 77.45 37.44, 111.16 -0.16 M0.15 133.39 C31.99 96.48, 62.25 63.15, 117.09 -1.32 M0.39 133.31 C38.72 91.85, 75.5 48.87, 115.43 -0.51 M-1.66 139.02 C36.47 97.17, 73.62 54.8, 123.44 -0.09 M-0.1 141.25 C37.53 95.41, 75.34 51.86, 121.76 0.29 M-0.5 147.29 C49.91 86.15, 96.64 30.44, 125.04 2.31 M0.41 145.25 C34.32 107.18, 67.01 68.58, 127.16 1.01 M-1.41 152.92 C42.53 102.9, 85.94 52.87, 134.1 1.38 M0.24 152.27 C52.8 92.5, 105.71 31.77, 131.99 -0.17 M1.02 159.14 C31.73 122.52, 64.03 85.4, 137.08 0.11 M-0.5 158.39 C31.66 122.24, 63.52 85.61, 137.96 0.62 M-0.05 163.03 C52.2 105.51, 105.17 46.94, 142.62 0.4 M-0.63 165.22 C37.22 123.6, 73.74 81.75, 143.82 -0.33 M-0.38 171.96 C35.76 131.15, 68.61 88.78, 141.92 4.84 M-0.14 171.43 C46.58 117.51, 93.64 62.94, 143.66 5.52 M-0.56 176.62 C38.3 136.52, 71.62 95.57, 144.24 13.57 M0.58 176.64 C52.38 116.53, 102.99 57.65, 143.26 12.28 M1.93 182.05 C51.52 124.64, 100.86 68.73, 142.28 19.51 M2.39 180.25 C46.66 127.77, 91.89 76.73, 143.87 18.59 M9.04 179.47 C44.6 134.17, 85.08 92.8, 144.07 24.89 M7.9 180.53 C42.82 139, 77.55 98.59, 143.36 24.16 M13.58 180.81 C51.09 133.82, 92.89 88.3, 143.19 32.04 M11.91 180.16 C63.73 122.45, 116.86 63.64, 144.08 30.08 M19.89 181.89 C42.13 149.1, 67.61 123.4, 142.3 37.3 M18.14 180.62 C58.23 135.49, 97.12 90.64, 143.4 36.51 M21.69 181.53 C68.95 132.84, 108.73 83.09, 140.8 44.47 M22.4 181 C46.84 150.58, 71.99 121.81, 142.1 42.77 M27.19 179.45 C52.07 150.96, 77.13 123.01, 144.76 50.4 M29.41 180.11 C66.95 133.06, 107.65 88.51, 143.77 48.45 M34.81 181.46 C75.17 134.74, 115.71 84.23, 141.8 54.54 M33.16 180.93 C60.66 148.95, 89.53 116.68, 142.61 55.88 M38.46 181.41 C77.88 132.43, 119.3 87.14, 142.52 60.88 M39.13 181.7 C61.66 155.69, 84.68 128.82, 143.58 61.31 M46.37 178.75 C75.38 145.69, 106.58 108.56, 143.9 67.24 M43.98 180.59 C70.37 149.19, 96.38 118.79, 142.81 67.27 M47.86 179.99 C73.5 155.36, 95.72 130.61, 142.73 75.28 M49.18 180.27 C72.41 154.77, 95.68 130.04, 141.8 73.69 M54.68 180.71 C84.16 147.27, 116.29 111.28, 142.34 79.93 M55.23 181.08 C75.3 157.55, 94.39 137.42, 143.08 78.51 M60.49 178.8 C86.95 146.61, 115.16 115.75, 143.39 87 M60.04 181.38 C89.29 146.33, 118.76 112.96, 141.9 86.35 M66.9 179.74 C91.28 149.58, 116.18 120.13, 141.23 91.08 M65.83 179.92 C91.83 151.62, 116.32 122.47, 142.39 91.59 M70.95 181.81 C92.39 156.07, 115.32 127.12, 141.39 96.86 M71.44 180.26 C96.39 151.7, 122.26 120.86, 141.98 96.76 M75.1 181.38 C101.83 151.02, 127.99 120.6, 140.91 105.06 M77.28 181.08 C94.16 160.32, 112.03 138.84, 143.59 103.69 M82.74 182.13 C96.38 162.04, 114.19 143.23, 143.15 110 M81.64 180.61 C100.55 160.36, 117.14 139.74, 143.33 110.08 M88.2 180.31 C103.18 162.67, 116.65 145.45, 144.56 117.07 M87.62 180.96 C105.33 158.17, 125.07 136.55, 142.09 116.18 M92.22 181.99 C109.79 162.1, 125.36 142.68, 143.99 120.72 M91.47 180.54 C102.99 168.2, 115.44 153.18, 143.82 121.88 M96 180.31 C108.3 169.67, 114.58 159.09, 142.25 129.73 M97.48 180.4 C112.21 164.76, 125.98 149.4, 143.87 129.12 M104.64 180.74 C114.87 169.76, 125.62 155.21, 143.42 133.2 M102.34 180.62 C115.33 166.98, 125.77 152.77, 143.23 134.96 M109.18 178.31 C118.95 169.38, 124.93 158.31, 141.61 142.03 M108.02 180.67 C120.33 166.32, 131.96 151.87, 142.15 140.25 M114.1 178.86 C123.35 166.18, 135.9 152.13, 143.8 146.46 M114.19 179.83 C122.05 172.25, 128.26 163.52, 141.84 146.26 M119.3 180.33 C128.61 169.72, 135.84 158.22, 143.13 154.05 M119 179.49 C126.26 170.26, 134.38 161.08, 142.68 151.77 M123.6 181.96 C130.7 174.04, 139.19 163.23, 142.41 158.92 M123.54 179.6 C131.23 173.36, 136.37 165.83, 142.57 159.45 M130.77 181.55 C134.66 174.45, 139.97 169.08, 143.51 163.78 M128.7 181.01 C133.81 175.75, 137.71 170.52, 143.15 165.03 M133.54 180.68 C136.96 179.46, 137.99 177.15, 142.41 169.86 M135.16 180.08 C137.37 176.22, 141.68 172.28, 143.36 170.17 M140.33 179.78 C141.03 179.57, 141.11 178.55, 142.71 176.93 M140.15 180.09 C140.73 179.64, 141.25 179.03, 143 177.24" stroke="#ced4da" stroke-width="0.5" fill="none"></path><path d="M0.54 -1.87 C27.58 0.59, 57 -2.15, 144.19 -0.15 M-0.69 -0.37 C34.54 -1.17, 66.93 -0.81, 142.76 0.49 M143.99 -1.09 C142.97 56.76, 142.64 114.26, 143.45 178.86 M141.82 -0.17 C142.8 50.92, 142.38 104.61, 142.1 177.94 M141.12 179.79 C94.57 179.22, 46.95 179.28, 1.41 179.47 M141.95 178.24 C92.16 177.62, 41.81 177.11, -0.43 178.85 M1.36 178.64 C0.19 124.68, 0.96 72.7, 0.35 0.24 M0.56 178.11 C1.44 140.87, 1.97 103.99, 0.47 0.28" stroke="#000000" stroke-width="1" fill="none"></path></g><g transform="translate(44.33333333333326 144.87315664192045) rotate(0 37 12.5)"><text x="37" y="18" font-family="Virgil, Segoe UI Emoji" font-size="20px" fill="#000000" text-anchor="middle" style="white-space: pre;" direction="ltr">Runtime</text></g><g stroke-linecap="round" transform="translate(175.33333333333348 71.3731566419205) rotate(0 71.33333333333326 29)"><path d="M0 0 C0 0, 0 0, 0 0 M0 0 C0 0, 0 0, 0 0 M-0.09 5.6 C1.51 4.93, 2.26 3.15, 4.69 0.75 M-0.12 6.19 C2 3.89, 3.46 2.33, 4.6 0.43 M-0.74 11.92 C2.97 7.75, 9.01 4.64, 11.56 -0.42 M0.67 11.75 C2.88 9.69, 4.43 6.05, 10.95 0.11 M1.18 16.94 C4.66 9.88, 11.72 3.56, 16.68 1.46 M-0.79 19.09 C4.47 13.18, 9.13 8.1, 16.5 -0.53 M1.13 25.95 C6.64 17.57, 13.9 10.76, 21.92 0.08 M0.36 24.09 C4.34 19.4, 9.61 14.13, 22.06 -0.54 M1.59 29.42 C6.79 21.06, 16.78 12.96, 25.48 1.47 M-0.41 29.82 C7.47 22.47, 13.38 14.04, 26.21 -0.37 M-1.2 35.91 C9.32 24.05, 19.56 14.74, 30.25 -1.7 M0.73 37.69 C11.37 23.06, 23.74 7.71, 31.27 0.37 M1.31 41.52 C7.04 32.58, 17.08 24.48, 35.52 -0.9 M-0.23 41.99 C9.02 32.55, 16.76 22.48, 37.72 -0.61 M0.75 47.47 C10.51 36.81, 22.58 23.86, 43.06 1.43 M0.54 48.58 C14.23 31.27, 28.56 14.57, 43.05 0 M1.16 54.01 C17.57 33, 37.78 12.8, 48.54 1.2 M0.89 53.92 C11.6 41.43, 22.59 27.58, 48.18 -0.44 M-0.14 60.24 C17.01 40.73, 37.91 22.36, 51.55 -2.12 M0.37 60.05 C21.55 36.92, 41.07 13.51, 52.3 -0.16 M5.38 57.28 C27.19 39.48, 46.66 16.31, 59.14 -0.23 M7.16 58.86 C20.42 42.84, 34.47 28.6, 57.29 -0.61 M13.13 58.65 C25.26 42.4, 40.4 29.84, 63.76 1.2 M12.53 59.56 C24.1 46.96, 33.81 33.72, 64.53 -0.11 M17.88 57.38 C34.48 39.13, 50.39 21.85, 66.81 -0.11 M18.21 59.02 C31.95 42.79, 46.09 25.83, 69.32 0.56 M21.35 59.85 C32.35 48.45, 44.06 35.37, 72.62 -1.94 M22.86 58.6 C32.87 46.94, 44.06 34.66, 73.77 0.52 M30.17 59 C45.11 41.43, 58.56 23.47, 79.93 -0.2 M28.91 58.59 C45.25 39.7, 60.58 18.79, 79.12 -0.82 M31.4 59.59 C52.57 37.02, 72.81 10.81, 83.93 0.24 M32.95 58.54 C52.37 36.96, 70.96 15.26, 84.65 0.59 M38.55 59.44 C57.43 35.55, 78.72 13.37, 91.73 -1.15 M38.61 59.66 C54.13 42.11, 68.79 25.35, 90.07 -0.17 M43.02 58.71 C58.28 42.53, 74.03 24.63, 96.37 0.66 M42.93 59.19 C60.03 39.48, 78.13 20, 96.35 -0.63 M48.18 57.11 C68.33 40.74, 83.39 22.09, 100.33 1.52 M49.24 58.76 C64.36 43.35, 78.06 25.86, 100.13 -0.52 M52.82 59.19 C66.85 47.11, 76.52 33.94, 105.5 1.36 M53.53 58.79 C65.71 47.88, 76.6 33.89, 106.6 0.57 M60.48 60.31 C77.56 39.75, 95.51 16.55, 112.72 1.41 M58.64 59.6 C73 44.75, 85.18 29.68, 111.83 -0.42 M66.29 60.14 C82.92 36.62, 100.67 16.48, 115.08 2.26 M66 60.03 C81.54 39.33, 98.09 21.38, 117.04 1.09 M71.68 60.19 C87.01 42.96, 101.88 24.35, 120.76 1.26 M69.18 60.08 C82.24 44.6, 93.78 31.11, 122.24 -0.01 M73.79 57.78 C93.93 35.33, 114.17 15.96, 127.74 2.14 M76.18 60.02 C90.92 42.61, 103.09 26.89, 127.86 0.03 M80.93 59.3 C98.4 40.9, 115 21.25, 133.19 0.91 M79.8 58.78 C94.93 44.5, 108.98 26.57, 133.01 -0.98 M86.57 57.47 C106.42 35.97, 122.8 14.12, 136.98 -0.82 M86.47 58.32 C99.73 43.15, 113.19 27.94, 137.82 1.16 M92.9 60.56 C110.61 34.94, 128.88 14.68, 143.63 1.34 M90.69 60 C104.91 43.93, 118.59 27.87, 142.35 -0.58 M96.75 57.68 C110.24 43.02, 123.03 30.39, 144.62 5.95 M97.83 58.93 C113.55 38.95, 129.86 19.85, 143.67 5.97 M101.15 60.01 C116.24 46.9, 128.43 32.93, 143.42 13.5 M102.58 60.43 C115.07 43.54, 130.27 27.88, 141.87 13.2 M109.3 58.03 C118.56 47.79, 128.64 34.92, 142.58 18.12 M107.77 58.28 C118.08 47.64, 129.45 35.23, 143.96 18.38 M112.1 58.81 C123.17 45.71, 134.68 34.28, 143.73 23.01 M112.78 59.23 C121.72 48.42, 131.43 39.02, 142.73 24.39 M118.1 59.23 C128.02 51.07, 133.04 41.55, 144.92 30.44 M118.39 59.25 C122.62 51.97, 128.23 45.71, 143.04 30.69 M125.06 59.25 C131.44 50.46, 137.74 42.29, 144.14 34.99 M123.15 59.99 C130.01 51.05, 136.77 42.47, 142.15 35.81 M129.89 59.14 C131.82 55.75, 138.5 49.3, 144.66 41.58 M128.31 59.13 C133.84 53.3, 138.37 48.19, 141.95 42.42 M132.7 60.35 C135.45 56.77, 138.87 53.86, 142.16 47.49 M134.05 58.94 C135.98 57.4, 137.54 55.5, 142.74 48.21 M139.71 59.44 C141.01 57.79, 142.07 56.58, 142.51 55.69 M139.32 59.17 C140.54 57.97, 141.1 57.23, 142.65 55.24" stroke="#228be6" stroke-width="0.5" fill="none"></path><path d="M-1.97 1.21 C47.68 0.2, 93.69 2.18, 144.54 -0.72 M0.3 -0.59 C36.54 -0.42, 73.89 -0.92, 141.8 -0.48 M144.2 -0.2 C142.66 17.76, 143.22 40.01, 144.3 57.09 M143.44 0.32 C143.1 13.7, 143.78 27.48, 142.11 58.67 M141.34 59.93 C93.15 57.65, 47.26 58.8, -0.12 57.56 M142.37 57.86 C104.22 56.89, 64.14 57.75, -0.48 58.18 M-0.1 56.91 C0.51 38.97, -0.89 19.98, 1.81 0.13 M0.64 58.38 C-0.17 38.76, 0.53 17.71, 0.36 0.52" stroke="#000000" stroke-width="1" fill="none"></path></g><g stroke-linecap="round" transform="translate(430.6666666666665 71.03982330858713) rotate(0 71.33333333333326 29)"><path d="M0 0 C0 0, 0 0, 0 0 M0 0 C0 0, 0 0, 0 0 M-0.79 6.28 C1.8 4.63, 2.96 2.79, 4.73 0.55 M-0.06 6.37 C0.83 4.76, 2.37 3.15, 5.05 0.38 M-0.29 11.35 C4.05 8.44, 7.26 1.17, 11.97 0.95 M-0.25 12.41 C3.12 7.42, 6.45 4.37, 9.94 -0.56 M-1.37 17.43 C4.94 13.58, 6.89 7.61, 14.11 -0.77 M0.27 18.15 C5.35 11.3, 11.83 4.95, 15.1 0 M0.16 24.29 C8.62 15.53, 14.82 9.56, 22.17 1.46 M0.26 23.55 C6.8 15.69, 14.84 7.95, 22.22 -0.62 M-1.71 29.98 C4.99 25.24, 11.57 19.26, 25.07 -1.49 M-0.54 30.79 C8.6 19.01, 19.94 7.61, 26.54 -0.48 M-2.11 37.55 C10.09 29.39, 14.6 16.19, 33.58 -1.7 M-0.43 36.84 C6.47 28.16, 13.16 20.7, 32.61 0.02 M1.38 44.37 C9.63 34.82, 16.46 25.18, 36.15 -0.65 M-0.16 42.19 C13.96 27.83, 26.51 10.39, 36.53 0.38 M-0.47 47.62 C12.85 36.98, 23.95 22.44, 40.9 -0.03 M0.69 49.52 C11.46 34.68, 25.74 19.73, 42.78 0.36 M0.77 54.31 C18.32 35.45, 35.01 12.38, 47.15 -0.45 M-0.02 54.73 C11.6 40.3, 24.98 26.8, 46.66 0.4 M0.03 61.02 C13.11 46.68, 24.2 29.67, 51.38 -0.19 M0.65 59.92 C19.39 39.17, 37.86 17.66, 53.11 -0.05 M8.75 59.12 C23.49 39.01, 40.99 19.55, 58.75 2.02 M7.61 59.67 C25.21 35.87, 45.5 13.22, 59.12 -0.13 M10.45 61.12 C28.67 37.79, 47.59 18.21, 65.12 0.3 M12.24 58.52 C23.65 45.68, 35.07 33.84, 64.58 0.78 M17.31 57.79 C32.81 42.26, 46.5 26.48, 68.51 -1.19 M17.79 59.26 C35.14 39.21, 52.23 18.77, 68.66 -0.51 M21.66 60.02 C40.25 39.28, 58.66 20.09, 75.12 1.04 M21.77 59.84 C41.57 39.09, 60.88 16.47, 74.69 -0.71 M30.02 59.97 C42.58 45.09, 56.1 28.91, 78.84 -0.93 M28.87 59.72 C47.04 37.34, 64.34 16.51, 78.56 0.42 M34.58 60.39 C52.62 38.19, 71.02 17.22, 83.24 -1.23 M33.29 60.29 C47.69 43.15, 61.71 28.71, 85.53 0.35 M39.23 59.86 C53.94 39.87, 70.32 25.28, 89.06 1.1 M39.67 59.17 C55.88 40.04, 73.03 20.39, 90.69 0.25 M43.01 58.03 C54.97 43.92, 68.89 30.37, 96.22 -0.67 M43.42 58.7 C58.48 41.45, 75.66 23.29, 95.75 -0.73 M50.18 60.84 C65.88 40.59, 82.4 20.31, 99.33 0.32 M49.6 58.17 C68.15 37, 87.5 15.93, 101.48 1 M53.64 57.84 C69.52 44.52, 85.16 27.77, 105.68 -2.29 M55.33 58.35 C67.38 42.04, 82.97 26.56, 106.56 -0.22 M60.34 60.13 C72.98 45.04, 85.99 30.82, 110.72 1.26 M59.95 60.47 C73.04 44.7, 85.59 30.22, 111.93 -0.86 M66.02 57.87 C83.09 35.59, 103.25 13.96, 115.45 -1.24 M64.75 58.95 C85.24 36, 106 13.73, 117.06 0.84 M70 57.82 C86.14 39.22, 105.98 19.48, 121.15 1.59 M70.56 59.99 C90.44 37.02, 108.39 14.31, 121.57 -0.43 M76.56 57.28 C94.37 39.34, 111.79 19.78, 128.21 2.2 M76 58.66 C94.3 36.83, 114.49 14.69, 126.91 -0.46 M82.39 61.4 C102.98 37.92, 122.48 13.36, 133.43 0.11 M79.86 59.35 C91.74 46.61, 101.65 34.19, 132.54 -0.38 M86.59 60.37 C105.9 36.59, 126.03 12.47, 137.54 -0.85 M85.94 60.06 C103.57 40.77, 121.16 20.54, 138.34 -0.29 M90.22 58.73 C101.52 47.89, 114.68 32.38, 143.22 0.72 M91.48 58.86 C105.41 44.61, 118.08 28.36, 143.49 -0.92 M98.27 60.55 C107.32 46.4, 123.27 30.96, 141.32 7.11 M95.99 58.19 C106.9 45.67, 118.49 34.38, 143.56 6.87 M103.13 58.78 C113.65 45.29, 126.44 30.51, 143.94 13.31 M101.64 59.28 C111.71 46.71, 122.13 34.27, 142.52 12.99 M106.65 60.37 C119.9 46.11, 130.86 32.81, 143.52 18.69 M108.15 58.5 C119.24 46.08, 128.71 33.49, 142.6 18.96 M111.6 59.65 C124.25 46.68, 133.27 32.45, 140.82 26.45 M113.12 59.77 C124.42 46.7, 135.7 31.6, 143.24 24.42 M119.67 59.48 C127.22 50.46, 132.92 42.4, 142.27 29.58 M118.95 58.89 C127.95 48.3, 137.6 36.29, 143.29 30.3 M123 60.57 C126.98 53.03, 131.17 50.39, 143.5 36.18 M123.23 59.96 C128.87 52.39, 134.71 46.85, 143.36 37.2 M130.13 58.68 C133.47 53.9, 139.34 45.26, 142.64 43.39 M129.53 59.71 C131.56 56.2, 133.89 52.74, 142.11 42.47 M133.65 58.35 C137.59 56.36, 138.09 54.09, 143.13 47.5 M133.87 59.76 C136.06 56.24, 138.31 54.14, 143.58 48.86 M139.56 59.22 C140.32 58.36, 141.31 57.71, 143.24 55.07 M139.52 59.18 C140.67 58.03, 141.38 56.81, 142.61 55.22" stroke="#228be6" stroke-width="0.5" fill="none"></path><path d="M-0.02 -0.54 C42.89 0.35, 87.33 -0.86, 141.38 -1.51 M0.66 0.47 C33.24 0.08, 68.56 -0.9, 142.1 -0.18 M143.89 0.05 C142.68 18.64, 142.04 39.75, 143.98 59.3 M143.63 -0.65 C142.67 22.77, 141.9 43.78, 143.22 57.13 M141.42 58.11 C89.23 59.47, 33.64 57.41, -1.25 57.13 M142.92 58.52 C112.55 57.04, 84.67 57.66, 0.8 58.55 M-1.1 56.19 C-0.4 44.48, 0.68 34.58, -0.65 -0.58 M0.33 57.51 C1.16 42.79, 1.27 28.17, -0.19 -0.63" stroke="#000000" stroke-width="1" fill="none"></path></g><g stroke-linecap="round" transform="translate(176.66666666666663 173.37315664192045) rotate(0 70.99999999999994 37.33333333333334)"><path d="M0 0 C0 0, 0 0, 0 0 M0 0 C0 0, 0 0, 0 0 M-0.64 6.01 C1.18 4.1, 2.87 3.13, 4.33 -0.28 M0.13 6.72 C1.52 4.25, 3.55 1.47, 4.74 0.55 M1.07 11.24 C1.47 8.68, 5.46 6.86, 9.55 -0.96 M-0.16 11.62 C2.88 9.04, 4.83 5.87, 11.3 -0.73 M0.74 16.99 C3.73 14.1, 9.14 8.81, 16.16 1.89 M0.54 18.1 C5.17 11.59, 10.21 5.57, 16.14 0.46 M1.16 23.53 C7 14.22, 16.82 5.98, 22.29 0.91 M0.88 23.44 C5 18.42, 9.66 11.84, 21.93 -0.73 M-1.46 31.27 C7.03 21.34, 19.51 12.66, 24.65 -1.65 M-0.95 31.08 C10.16 19.05, 19.84 6.96, 25.4 0.31 M-1.84 35.1 C12.91 25.26, 25.3 10.25, 32.89 -0.52 M-0.06 36.68 C8.08 26.57, 17.11 18.09, 31.04 -0.9 M1.31 41.75 C9.47 30.08, 20.61 22.11, 36.86 1.67 M0.71 42.67 C8.98 33.86, 15.39 24.43, 37.62 0.35 M0.16 47.28 C14.03 32.3, 27.16 18.22, 40.56 -0.4 M0.49 48.92 C11.79 35.42, 23.53 21.23, 43.08 0.27 M-0.96 55.03 C9.06 44.74, 19.78 32.8, 45.72 -1.48 M0.55 53.78 C9.59 43.26, 19.81 32.1, 46.87 0.98 M1.96 60.97 C17.47 42.73, 31.51 24.09, 53.68 -0.49 M0.69 60.56 C17.67 40.91, 33.64 19.25, 52.87 -1.11 M-2.06 67.6 C21.74 41.99, 44.6 12.77, 57.03 0.7 M-0.52 66.55 C21.29 42.25, 42.29 17.78, 57.75 1.05 M-0.17 73.49 C23.31 44.19, 49.33 16.57, 65.48 -1.44 M-0.11 73.71 C19.09 52, 37.32 31.13, 63.82 -0.47 M1.68 75.78 C21.23 54.75, 41.14 32.05, 69.47 1.12 M1.59 76.26 C23.43 50.9, 46.36 25.85, 69.45 -0.17 M6.19 74.93 C31.59 52.66, 51.81 28.08, 74.08 1.23 M7.25 76.58 C26.75 56.15, 44.73 33.74, 73.88 -0.81 M11.48 76.26 C28.57 60.49, 41.37 43.74, 78.6 1.82 M12.19 75.86 C27.48 61.51, 41.4 44.04, 79.69 1.03 M19.15 77.38 C41.38 50.76, 64.6 21.5, 86.47 1.12 M17.31 76.67 C35.37 57.41, 51.34 37.98, 85.58 -0.72 M24.95 77.21 C47.08 47.4, 70.36 20.9, 88.84 1.96 M24.66 77.09 C45.17 50.71, 66.66 27.08, 90.79 0.8 M30.35 77.26 C50.4 54.62, 69.92 30.66, 94.51 0.97 M27.84 77.14 C44.41 57.51, 59.48 39.97, 95.99 -0.31 M32.46 74.85 C58.2 45.79, 84.22 19.77, 101.49 1.85 M34.85 77.08 C53.81 55.06, 70.04 34.67, 101.61 -0.26 M39.59 76.37 C61.95 52.39, 83.47 27.09, 106.94 0.62 M38.46 75.85 C57.58 56.94, 75.74 34.29, 106.76 -1.27 M44.58 75.29 C70.32 47.07, 92.43 18.62, 110.73 -1.11 M44.48 76.14 C61.96 56.13, 79.49 36.23, 111.57 0.87 M51.56 77.63 C74.66 45.66, 98.39 19.11, 116.73 1.81 M49.35 77.06 C67.22 56.54, 84.68 36.14, 115.44 -0.12 M54.75 75.5 C73.93 54.35, 92.29 35.31, 123.62 -0.38 M55.84 76.75 C79 47.79, 102.98 19.87, 122.67 -0.35 M59.81 77.08 C82.82 54.89, 102.7 32.08, 127.67 1.13 M61.25 77.49 C82.51 50.7, 106.51 24.92, 126.12 0.83 M67.31 75.85 C86.1 54.48, 105.58 30.79, 132.08 -0.29 M65.78 76.11 C85.76 54.48, 106.59 31.18, 133.46 -0.02 M70.76 75.87 C95.81 47.29, 121.05 20.07, 138.48 -1.43 M71.45 76.3 C91.13 53.09, 111.74 31.14, 137.48 -0.05 M76.11 77.05 C100.11 53.29, 118.81 28.02, 144.26 0.71 M76.39 77.07 C89.53 59.59, 104.24 42.88, 142.38 0.96 M83.72 76.32 C104.92 50.22, 126.29 24.7, 144.14 4.51 M81.82 77.06 C103.58 50.97, 125.4 25.07, 142.15 5.33 M87.9 76.96 C101.72 59.72, 120.44 39.41, 144.65 11.1 M86.32 76.95 C105.35 55.47, 123.47 34.74, 141.95 11.94 M90.87 77.82 C103.91 61.7, 118.18 46.75, 141.12 17.2 M92.79 75.81 C102.59 64.76, 112.21 53.53, 141.94 18.23 M98.29 78.56 C114.76 59.15, 130.1 41.5, 141.65 26.6 M96.77 77.5 C109.94 62.98, 120.38 50.64, 142.22 24.79 M101.25 76.92 C115.18 63.86, 127.03 47.08, 141.96 31.68 M103.34 77.01 C116.23 62.1, 129.05 46.43, 142.44 32.02 M107.77 77.96 C121.2 62.36, 131.15 50.02, 142.68 35.37 M107.51 76.89 C119.16 65.81, 128.59 53.69, 142.02 37.18 M112.8 75.29 C120.78 66.79, 129.52 60.2, 140.88 44.44 M113.04 75.56 C122.92 66.95, 131.58 55.31, 142.57 42.84 M117.72 76.38 C127.83 67.6, 136.57 57.43, 143.39 51.46 M118.87 77.75 C128.1 66.92, 137.99 56.35, 142.04 49.96 M124.32 75.72 C128.54 73.25, 132.75 65.57, 141.61 56.33 M123.99 76.8 C129.63 69.99, 136.58 61.27, 142.47 54.5 M130.36 76.17 C135.22 70.12, 140.04 63.09, 142.27 59.78 M129.76 77.13 C132.31 71.49, 136.54 67.52, 141.53 62.12 M135.31 77.41 C136.4 74.65, 140.45 70.11, 144.04 66.11 M134.94 76.44 C137.04 74.02, 139.18 70.98, 142.88 67.25 M140.19 76.71 C140.75 75.26, 141.73 74.2, 142.28 73.46 M139.96 76.65 C140.8 75.89, 141.48 75.27, 142.6 73.61" stroke="#82c91e" stroke-width="0.5" fill="none"></path><path d="M0.44 -2 C35.77 -0.43, 68.98 -1.23, 141.25 0.99 M0.36 -0.52 C52.89 -1.72, 103.64 -0.1, 141.03 0.18 M140.91 -0.15 C140.1 26.62, 143 54.59, 143.16 74.18 M142.67 -0.37 C141.93 18.26, 140.75 35.04, 142.4 74.85 M143.31 73.17 C86.9 71.6, 33.97 72.17, 1.06 75.8 M141.34 75.32 C104.33 73.46, 66.77 73.23, 0.88 73.81 M0.86 76.54 C0.79 54.06, 2.14 33.03, 0.66 0.15 M0.09 74.68 C-0.25 58.64, 0.31 42.02, 0.79 -0.47" stroke="#000000" stroke-width="1" fill="none"></path></g><g stroke-linecap="round"><g transform="translate(370.4668126498659 11.019911654293537) rotate(0 0.37786893000213695 127.91112012912825)"><path d="M1.13 -1.02 C1.14 41.74, -0.31 213.82, -0.38 256.84" stroke="#000000" stroke-width="1.5" fill="none" stroke-dasharray="1.5 7"></path></g></g><g transform="translate(63.33333333333303 21.03982330858713) rotate(0 96 12.5)"><text x="0" y="18" font-family="Virgil, Segoe UI Emoji" font-size="20px" fill="#000000" text-anchor="start" style="white-space: pre;" direction="ltr">WebAssembly module</text></g><g transform="translate(423.9999999999998 21.70648997525376) rotate(0 79.5 12.5)"><text x="0" y="18" font-family="Virgil, Segoe UI Emoji" font-size="20px" fill="#000000" text-anchor="start" style="white-space: pre;" direction="ltr">JavaScript host</text></g><g transform="translate(201.16666666666674 87.8731566419205) rotate(0 45.5 12.5)"><text x="45.5" y="18" font-family="Virgil, Segoe UI Emoji" font-size="20px" fill="#000000" text-anchor="middle" style="white-space: pre;" direction="ltr">glue code</text></g><g transform="translate(457.1666666666663 84.8731566419205) rotate(0 45.5 12.5)"><text x="45.5" y="18" font-family="Virgil, Segoe UI Emoji" font-size="20px" fill="#000000" text-anchor="middle" style="white-space: pre;" direction="ltr">glue code</text></g><g transform="translate(206 183.03982330858713) rotate(0 41 25)"><text x="41" y="18" font-family="Virgil, Segoe UI Emoji" font-size="20px" fill="#000000" text-anchor="middle" style="white-space: pre;" direction="ltr">My Rust</text><text x="41" y="43" font-family="Virgil, Segoe UI Emoji" font-size="20px" fill="#000000" text-anchor="middle" style="white-space: pre;" direction="ltr">code</text></g><g transform="translate(469.33333333333326 185.70648997525387) rotate(0 30 25)"><text x="30" y="18" font-family="Virgil, Segoe UI Emoji" font-size="20px" fill="#000000" text-anchor="middle" style="white-space: pre;" direction="ltr">My JS</text><text x="30" y="43" font-family="Virgil, Segoe UI Emoji" font-size="20px" fill="#000000" text-anchor="middle" style="white-space: pre;" direction="ltr">code</text></g><g stroke-linecap="round" transform="translate(432.33333333333326 174.03982330858713) rotate(0 70.99999999999989 37.33333333333337)"><path d="M0 0 C0 0, 0 0, 0 0 M0 0 C0 0, 0 0, 0 0 M-0.7 6.27 C0.34 5.59, 2.15 2.95, 5.49 0.4 M-0.6 6.4 C1.06 5.14, 1.53 3.92, 4.85 0.66 M-0.17 12.19 C4.11 8.49, 7.33 5.55, 12.13 1.39 M0.93 12.07 C3.54 9.39, 6.36 5.27, 10.93 -0.61 M-0.76 18.35 C6.27 12.99, 8.09 6.52, 16.72 0.99 M0.31 17.46 C4.77 13.49, 7.32 8.47, 14.89 1.2 M-0.28 24.88 C6.96 16.03, 13.16 6.75, 19.42 -0.1 M0.67 23.2 C7.76 14.05, 16.46 4.24, 21.76 -0.17 M1.81 28.87 C8.63 23.77, 12.37 16.3, 24.32 -0.51 M0.19 30.53 C10.25 18.88, 19.4 6.77, 26.21 1.16 M-0.12 35.39 C9 23.11, 19.94 10.86, 30.85 -1.19 M-0.41 37.56 C11.82 23.73, 24.73 8.36, 31.63 0 M-0.61 40.54 C14.31 28.57, 24.15 14.04, 36.13 1.74 M0.75 43.2 C13.63 27.14, 27.36 11.72, 37.29 -0.4 M-1.85 50.53 C13.28 34.39, 26.09 18.18, 43.47 -0.29 M-0.89 49.01 C9.57 39.08, 18.23 28.25, 42.01 -0.82 M2.16 53.09 C17.14 31.82, 38.6 10.28, 48.38 -1.55 M0.63 53.61 C12.16 42.09, 22.06 28.4, 47.25 -0.31 M-0.39 60.25 C11.38 48.98, 22.55 36, 55.07 0.72 M0.95 60.25 C17.24 41.08, 34.16 21.77, 52.75 -0.69 M0.74 67.88 C16.3 45.37, 36.97 26.82, 58.43 1.14 M0.29 67.23 C17.26 46.63, 35.45 25.54, 57.65 1.18 M-0.89 74.6 C14.76 53.32, 32.41 36.8, 64.57 0.84 M-0.08 73.75 C23.53 45.79, 46.34 20.12, 64.12 -1.08 M3.5 77.88 C18.18 59.69, 30.88 43.22, 68.76 -1.73 M3.17 76.79 C24.29 51.65, 47.54 25.58, 68.49 0.36 M7.84 76.21 C33.88 46.85, 62.43 14.45, 76 -0.08 M8.48 76.26 C28.54 55.53, 47.51 32.79, 74.84 -0.91 M12.55 76.17 C37.32 51.22, 60.2 23.69, 78.97 -0.89 M13.83 76.86 C35.35 51.33, 56.82 27.09, 80.18 0.11 M18.98 77.4 C39.48 52.66, 63.84 25.88, 86.54 -1.3 M18.38 75.94 C37.07 54.25, 57.31 31.34, 84.05 -0.54 M22.7 75.06 C44.4 54.9, 62.22 30.89, 89.79 1.87 M22.81 76.88 C47.06 46.97, 73.18 19.53, 89.62 -0.16 M27.46 78.63 C52.41 51.83, 73.27 24.26, 94.47 -1.19 M28.46 76.73 C43.05 59.94, 57.91 41.35, 95.35 0.24 M33.73 74.64 C57.97 50.98, 82.36 22.42, 99.06 1.58 M34.94 75.8 C59.58 46.68, 84.11 18.92, 100.1 -0.44 M40.65 77.45 C64.88 45.27, 90 14.94, 107.21 -1.27 M39.27 77.36 C64.54 47.93, 88.96 17.99, 106.75 0.21 M45.92 76.68 C59.3 61.92, 72.06 44.41, 109.78 -1.83 M44.84 77.91 C67.43 50.31, 89.38 24.47, 111.36 -0.2 M51.03 76.28 C68.68 56.03, 82.33 37.62, 116.65 -1.42 M49.81 77.15 C71.72 53.22, 92.22 27.62, 116.08 -0.55 M54.6 77.52 C72.72 55.91, 92.07 36.02, 122.04 0.45 M55.54 77.78 C74.8 54.16, 93.5 30.36, 121.6 -0.31 M60.18 78.44 C86.3 47.04, 108.69 17.85, 125.76 1.09 M61.51 75.95 C80.04 55.08, 97.32 33.57, 127.54 0.35 M66.29 76.66 C85.69 53.97, 105.78 27.29, 133.07 -1.9 M66.53 76.81 C87 51.78, 110.59 26.81, 133.43 0.89 M70.85 76.09 C87.78 56.95, 102.96 38.71, 136.68 0.14 M72.25 76.19 C92.58 51.53, 113.17 27.84, 137.82 0.11 M77.28 77.72 C104.41 48.07, 127.12 16.99, 140.57 2.42 M76.4 76.2 C90.72 59.72, 104.77 43.98, 143.25 0.42 M82.89 78.3 C101.94 52.56, 125.39 29.64, 144.07 7.74 M82.33 76.86 C103.52 50.94, 124.57 25.66, 143.43 5.81 M84.98 77.18 C98.58 62.32, 108.45 48.86, 142.84 11.4 M86.18 77.73 C106.85 54.58, 124.99 33.28, 143.38 13.62 M93.28 74.98 C105.69 61.57, 119.71 46.7, 144.33 19.53 M92.49 75.52 C102.16 65.3, 112.12 53.98, 141.95 19.77 M95.95 76.41 C108.92 62.84, 123.05 46.09, 142.31 26.04 M97.33 77.73 C114.04 56.3, 132.34 35.68, 143.58 24.55 M104.11 76.95 C113.83 66.42, 123.09 54.63, 142.17 31.68 M103.92 76.27 C115.38 63.02, 125.8 50.75, 142.59 30.59 M109.84 77.65 C116.18 66.54, 121.34 58.4, 144.72 35.5 M107.76 77.09 C117 66.91, 125.71 55.57, 142.23 37.13 M114.63 75.87 C122.72 69.62, 126.98 59.76, 144.23 41.58 M114.24 75.79 C123.34 64.67, 132.38 54.88, 141.76 43.74 M119.44 76.02 C124.87 69.02, 130.56 64.1, 144.26 50.59 M117.8 77.28 C127.86 67.7, 135.53 58.26, 141.47 48.61 M125.17 76.31 C129.44 70.32, 134.71 62.68, 142.93 54.72 M123.5 77.33 C128.14 71.14, 132.21 65.38, 143.02 54.49 M130.67 75.5 C134.86 71.79, 138.11 64.39, 142.23 60.74 M130.22 76.31 C131.93 71.69, 136.09 67.99, 141.87 62.53 M133.96 75.94 C136.44 75.6, 139.03 71.77, 143.46 66.18 M134.55 76.54 C137.59 74.03, 139.39 71.53, 142.55 66.91 M139.75 76.74 C141.22 75.42, 142.19 74.75, 142.74 73.83 M140.08 76.7 C140.78 75.78, 141.86 74.54, 142.62 73.58" stroke="#82c91e" stroke-width="0.5" fill="none"></path><path d="M0.1 -0.97 C47.94 1.04, 92.7 1.28, 140.39 0.47 M0.09 0.52 C44.41 1.41, 89.45 0.1, 141.23 -0.45 M143.36 -1.01 C142.62 27.45, 142.31 52.57, 140.09 72.69 M141.35 0.51 C142.99 28.83, 143.31 57.05, 141.12 75.12 M143.74 76.09 C104.49 76.33, 66.93 74.07, 1.85 73.75 M142.67 75.37 C104.96 73.23, 69 73.03, 0.04 74.77 M0.49 74.42 C1.81 52.31, -0.91 30.63, 0.53 0.57 M0.58 74.65 C0.57 54.39, -0.21 34.3, 0.88 0.44" stroke="#000000" stroke-width="1" fill="none"></path></g><g stroke-linecap="round"><g transform="translate(233.14086167303003 132.55364209818657) rotate(0 0.2320976131009047 16.303221744784764)"><path d="M-0.7 -0.29 C-0.5 5.23, 0.8 27.21, 0.95 32.65 M1.14 -1.49 C1.27 4.27, 0.68 28.28, 0.4 34.09" stroke="#000000" stroke-width="1" fill="none"></path></g><g transform="translate(233.14086167303003 132.55364209818657) rotate(0 0.2320976131009047 16.303221744784764)"><path d="M-5.08 19.53 C-3.57 22.88, -2.59 27.78, -0.63 33.68 M-4.82 18.95 C-3.74 21.94, -1.54 26.28, -0.08 34.72" stroke="#000000" stroke-width="1" fill="none"></path></g><g transform="translate(233.14086167303003 132.55364209818657) rotate(0 0.2320976131009047 16.303221744784764)"><path d="M6.14 19.91 C4.52 23.09, 2.36 27.88, -0.63 33.68 M6.4 19.33 C4.96 22.2, 4.65 26.45, -0.08 34.72" stroke="#000000" stroke-width="1" fill="none"></path></g></g><g stroke-linecap="round"><g transform="translate(256 166.70648997525376) rotate(0 -0.7313303538272748 -15.033125297399266)"><path d="M0.19 -0.64 C-0.01 -5.75, -0.3 -24.83, -0.58 -29.72 M-1.17 1.63 C-1.58 -3.93, -1.85 -26.65, -1.48 -31.7" stroke="#000000" stroke-width="1" fill="none"></path></g><g transform="translate(256 166.70648997525376) rotate(0 -0.7313303538272748 -15.033125297399266)"><path d="M2.56 -17.39 C1.89 -23.51, -0.15 -27.94, -1.48 -30.41 M3.21 -16.87 C1.89 -21.97, 0.56 -26.96, -0.79 -32.01" stroke="#000000" stroke-width="1" fill="none"></path></g><g transform="translate(256 166.70648997525376) rotate(0 -0.7313303538272748 -15.033125297399266)"><path d="M-7.7 -17.6 C-4.74 -23.66, -3.16 -28.02, -1.48 -30.41 M-7.05 -17.08 C-4.8 -22.08, -2.55 -26.99, -0.79 -32.01" stroke="#000000" stroke-width="1" fill="none"></path></g></g><g stroke-linecap="round"><g transform="translate(492.57043083651524 134.96339937005348) rotate(0 -0.07302388792231795 16.43330296436946)"><path d="M0.23 -1.02 C0.24 4.2, 0.98 26.78, 0.96 32.51 M-1.11 1.06 C-1.26 6.97, 0.34 28.84, 0.42 33.89" stroke="#000000" stroke-width="1" fill="none"></path></g><g transform="translate(492.57043083651524 134.96339937005348) rotate(0 -0.07302388792231795 16.43330296436946)"><path d="M-7.32 19.81 C-3.83 24.32, -0.27 31.04, -0.55 35.18 M-6.11 18.44 C-4.5 22.72, -2.89 27.23, 1.04 33.08" stroke="#000000" stroke-width="1" fill="none"></path></g><g transform="translate(492.57043083651524 134.96339937005348) rotate(0 -0.07302388792231795 16.43330296436946)"><path d="M3.89 19.27 C3.2 24, 2.59 30.92, -0.55 35.18 M5.1 17.9 C3.54 22.23, 1.99 26.9, 1.04 33.08" stroke="#000000" stroke-width="1" fill="none"></path></g></g><g stroke-linecap="round"><g transform="translate(515.4295691634848 169.11624724712067) rotate(0 -0.7205015100568062 -14.639979855716234)"><path d="M-1.02 0.77 C-1.38 -4.28, -1.13 -25.04, -0.97 -30.05 M0.64 0.13 C0 -4.74, -1.88 -23.31, -2.08 -28.54" stroke="#000000" stroke-width="1" fill="none"></path></g><g transform="translate(515.4295691634848 169.11624724712067) rotate(0 -0.7205015100568062 -14.639979855716234)"><path d="M5.03 -15.24 C1.54 -19.63, 0.08 -26.66, -0.9 -28.8 M3.78 -15.12 C2.31 -18.73, 0.98 -21.18, -2.82 -28.75" stroke="#000000" stroke-width="1" fill="none"></path></g><g transform="translate(515.4295691634848 169.11624724712067) rotate(0 -0.7205015100568062 -14.639979855716234)"><path d="M-5.21 -14.49 C-4.64 -19.09, -2.03 -26.42, -0.9 -28.8 M-6.46 -14.37 C-5.35 -18.15, -4.1 -20.78, -2.82 -28.75" stroke="#000000" stroke-width="1" fill="none"></path></g></g><g stroke-linecap="round"><g transform="translate(326 86.70648997525382) rotate(0 48.82288787637992 0.11255939519998037)"><path d="M0.03 0.4 C16.37 0.5, 82.58 1.07, 99.05 0.97 M-1.41 -0.44 C14.66 -0.69, 81.41 -0.89, 97.96 -0.64" stroke="#000000" stroke-width="1" fill="none"></path></g><g transform="translate(326 86.70648997525382) rotate(0 48.82288787637992 0.11255939519998037)"><path d="M70.38 9.03 C82.15 4.83, 91.08 2.67, 98.58 -1.66 M70.56 10.37 C80.93 4.88, 91.78 2.85, 98.08 -1.38" stroke="#000000" stroke-width="1" fill="none"></path></g><g transform="translate(326 86.70648997525382) rotate(0 48.82288787637992 0.11255939519998037)"><path d="M70.47 -11.49 C82.26 -7.82, 91.16 -2.1, 98.58 -1.66 M70.65 -10.15 C81.16 -7.74, 91.98 -1.86, 98.08 -1.38" stroke="#000000" stroke-width="1" fill="none"></path></g></g><g stroke-linecap="round"><g transform="translate(424.6666666666665 106.03982330858713) rotate(0 -48.59821452399251 0.31886602987847823)"><path d="M0.16 -0.8 C-15.72 -0.49, -80.3 1, -96.27 1.44 M-1.21 1.39 C-17.19 1.4, -81.53 -0.07, -97.36 -0.28" stroke="#000000" stroke-width="1" fill="none"></path></g><g transform="translate(424.6666666666665 106.03982330858713) rotate(0 -48.59821452399251 0.31886602987847823)"><path d="M-70.32 -10.47 C-73.9 -7.25, -79.36 -4.93, -98.6 -0.04 M-68.51 -9.76 C-76.37 -7.3, -83.49 -4.85, -96.89 0.13" stroke="#000000" stroke-width="1" fill="none"></path></g><g transform="translate(424.6666666666665 106.03982330858713) rotate(0 -48.59821452399251 0.31886602987847823)"><path d="M-70.7 10.05 C-74.12 8.81, -79.51 6.67, -98.6 -0.04 M-68.89 10.76 C-76.59 8.04, -83.61 5.32, -96.89 0.13" stroke="#000000" stroke-width="1" fill="none"></path></g></g></svg>