<svg version="1.1" xmlns="http://www.w3.org/2000/svg" viewBox="0 0 271.99999999999955 298.33333333333337" width="271.99999999999955" height="298.33333333333337">
  <!-- svg-source:excalidraw -->
  
  <defs>
    <style>
      @font-face {
        font-family: "Virgil";
        src: url("https://excalidraw.com/Virgil.woff2");
      }
      @font-face {
        font-family: "Cascadia";
        src: url("https://excalidraw.com/Cascadia.woff2");
      }
    </style>
  </defs>
  <rect x="0" y="0" width="271.99999999999955" height="298.33333333333337" fill="#ffffff"></rect><g transform="translate(32 10) rotate(0 23.5 12.5)"><text x="0" y="18" font-family="Virgil, Segoe UI Emoji" font-size="20px" fill="#000000" text-anchor="start" style="white-space: pre;" direction="ltr">Rust</text></g><g transform="translate(135.33333333333348 10) rotate(0 6.5 12.5)"><text x="0" y="18" font-family="Virgil, Segoe UI Emoji" font-size="20px" fill="#000000" text-anchor="start" style="white-space: pre;" direction="ltr">C</text></g><g transform="translate(208.66666666666652 10) rotate(0 13.5 12.5)"><text x="0" y="18" font-family="Virgil, Segoe UI Emoji" font-size="20px" fill="#000000" text-anchor="start" style="white-space: pre;" direction="ltr">Go</text></g><g stroke-linecap="round" transform="translate(10 241) rotate(0 56 23.666666666666686)"><path d="M0.65 0.67 C32.9 0.96, 66.74 -1.7, 111.42 -0.31 M-0.26 -0.02 C38.15 -1.19, 74.08 -1.21, 112.91 0.74 M111.34 -0.77 C113.5 9.89, 111.3 21.29, 111.05 46.09 M111.24 0.75 C112.57 10.74, 111.41 21.55, 111.8 46.36 M112.6 46.03 C70.27 46.48, 30.56 49.01, -1.6 45.65 M111.85 48.01 C73.42 47.78, 36.15 47.69, 0.09 47.17 M-0.71 46.04 C-0.78 37.73, 0.64 24.23, -1.42 -1.37 M-0.97 47.13 C0.34 30.05, -0.55 14.03, 0.92 -0.91" stroke="#000000" stroke-width="1" fill="none"></path></g><g stroke-linecap="round" transform="translate(149.99999999999955 240.66666666666674) rotate(0 56 23.666666666666686)"><path d="M0.67 -0.8 C23.56 -1.02, 43.61 -0.95, 111.69 0.68 M-0.02 0.75 C29.03 -0.44, 58.34 1.2, 112.74 -0.87 M111.23 1.53 C111.84 13.27, 113.14 26.93, 110.76 46.01 M112.75 0.9 C111.22 10.7, 110.95 21.73, 111.02 47.98 M110.69 46.4 C75.18 47.82, 41.88 46.07, -1.69 48.1 M112.68 46.64 C85.02 47.09, 58 47.25, -0.17 46.6 M-1.29 46.68 C0.7 32.65, -2.05 15, -1.37 0.96 M-0.2 47.38 C-0.7 35.24, -0.24 25.76, -0.91 0.66" stroke="#000000" stroke-width="1" fill="none"></path></g><g transform="translate(46.000000000000455 252.16666666666674) rotate(0 20 12.5)"><text x="20" y="18" font-family="Virgil, Segoe UI Emoji" font-size="20px" fill="#000000" text-anchor="middle" style="white-space: pre;" direction="ltr">X86</text></g><g transform="translate(184.99999999999955 251.83333333333326) rotate(0 21 12.5)"><text x="21" y="18" font-family="Virgil, Segoe UI Emoji" font-size="20px" fill="#000000" text-anchor="middle" style="white-space: pre;" direction="ltr">ARM</text></g><g stroke-linecap="round" transform="translate(79.33333333333258 156.83333333333348) rotate(0 56 23.666666666666686)"><path d="M-0.65 -1.79 C36.78 -0.79, 75.4 -1.25, 113.57 -0.52 M-0.73 -0.33 C34.25 1.08, 65.81 0.29, 112.11 -0.33 M111.33 1.09 C111.41 11.13, 111.04 23.38, 110.13 45.82 M111.73 -0.6 C112.23 16.78, 113.07 35.72, 112.12 47.63 M112.15 48.87 C84.12 45.09, 60.21 45.59, 0.89 47.03 M111.92 47.19 C70.91 47.11, 28.91 47.54, 0.93 46.98 M0.77 45.72 C-1.27 34.83, 1.12 23.81, -0.46 -1.93 M-0.85 46.98 C0.9 33.17, 0.64 21.59, -0.73 0.42" stroke="#000000" stroke-width="1" fill="none"></path></g><g transform="translate(107.33333333333258 168) rotate(0 28 12.5)"><text x="28" y="18" font-family="Virgil, Segoe UI Emoji" font-size="20px" fill="#000000" text-anchor="middle" style="white-space: pre;" direction="ltr">WASM</text></g><g stroke-linecap="round"><g transform="translate(101.99999999999955 211.83333333333348) rotate(0 -12.33440656478524 10.415006438321427)"><path d="M-1.07 -0.35 C-5.19 3.45, -20.29 18.53, -24.19 22.41 M0.56 -1.58 C-3.77 1.89, -20.89 16.72, -25.23 20.5" stroke="#000000" stroke-width="1" fill="none"></path></g><g transform="translate(101.99999999999955 211.83333333333348) rotate(0 -12.33440656478524 10.415006438321427)"><path d="M-17.8 6.02 C-19.53 10.46, -21.52 15.55, -25.27 21.71 M-16.58 6.87 C-20.26 10.03, -21.6 13.64, -25.55 21.12" stroke="#000000" stroke-width="1" fill="none"></path></g><g transform="translate(101.99999999999955 211.83333333333348) rotate(0 -12.33440656478524 10.415006438321427)"><path d="M-10.5 14.43 C-14.71 15.92, -19.21 18.12, -25.27 21.71 M-9.28 15.29 C-14.87 16.15, -18.17 17.5, -25.55 21.12" stroke="#000000" stroke-width="1" fill="none"></path></g></g><g stroke-linecap="round"><g transform="translate(173.33333333333303 213.16666666666674) rotate(0 14.696044110754997 10.089114467132163)"><path d="M-0.35 -0.19 C4.67 3.36, 24.64 16.79, 29.74 20.21 M1.67 -1.33 C6.6 2.48, 24.28 17.7, 29.01 21.51" stroke="#000000" stroke-width="1" fill="none"></path></g><g transform="translate(173.33333333333303 213.16666666666674) rotate(0 14.696044110754997 10.089114467132163)"><path d="M11.86 16.02 C15.91 18.5, 20.63 18.68, 30.34 20.96 M12.8 14.63 C15.89 16.74, 19.47 17.67, 29.69 21.41" stroke="#000000" stroke-width="1" fill="none"></path></g><g transform="translate(173.33333333333303 213.16666666666674) rotate(0 14.696044110754997 10.089114467132163)"><path d="M19.72 6.6 C21.59 11.57, 24.21 14.27, 30.34 20.96 M20.66 5.21 C21.94 9.52, 23.74 12.6, 29.69 21.41" stroke="#000000" stroke-width="1" fill="none"></path></g></g><g stroke-linecap="round"><g transform="translate(53.333333333333485 39.833333333333485) rotate(0 30.900237581082706 54.25827643913681)"><path d="M-0.19 0.41 C10.58 18.62, 52.9 91.01, 63.54 108.94 M-1.74 -0.42 C8.92 17.5, 51.6 89.03, 62.36 107.31" stroke="#000000" stroke-width="1" fill="none"></path></g><g transform="translate(53.333333333333485 39.833333333333485) rotate(0 30.900237581082706 54.25827643913681)"><path d="M39.83 87.53 C45.55 91.82, 48.82 97.83, 61.74 105.85 M38.29 88.24 C45.63 92.87, 51.33 99.04, 62.25 106.98" stroke="#000000" stroke-width="1" fill="none"></path></g><g transform="translate(53.333333333333485 39.833333333333485) rotate(0 30.900237581082706 54.25827643913681)"><path d="M57.48 77.07 C59.45 83.53, 59.01 91.74, 61.74 105.85 M55.94 77.78 C58.66 85.33, 59.65 94.3, 62.25 106.98" stroke="#000000" stroke-width="1" fill="none"></path></g></g><g stroke-linecap="round"><g transform="translate(139.99999999999955 45.16666666666674) rotate(0 -0.5530334366998204 48.32690529448604)"><path d="M0.41 -0.46 C0.29 15.74, -0.65 80.57, -1.06 97.02 M-0.84 -1.74 C-1 14.65, -1.19 82.05, -1.51 98.4" stroke="#000000" stroke-width="1" fill="none"></path></g><g transform="translate(139.99999999999955 45.16666666666674) rotate(0 -0.5530334366998204 48.32690529448604)"><path d="M-12.25 71.67 C-9.35 77.69, -4.64 84.78, -2.98 97.74 M-11.54 70.21 C-7.71 80.87, -2.71 92.22, -1.85 98.94" stroke="#000000" stroke-width="1" fill="none"></path></g><g transform="translate(139.99999999999955 45.16666666666674) rotate(0 -0.5530334366998204 48.32690529448604)"><path d="M8.27 71.88 C5.61 77.91, 4.76 84.95, -2.98 97.74 M8.98 70.42 C4.78 80.82, 1.75 92.09, -1.85 98.94" stroke="#000000" stroke-width="1" fill="none"></path></g></g><g stroke-linecap="round"><g transform="translate(221.99999999999955 43.16666666666674) rotate(0 -25.62593078827183 50.94158600102179)"><path d="M-0.46 0.94 C-9.03 17.53, -43.31 83.52, -51.64 99.97 M1.5 0.39 C-7.24 17.15, -44.05 84.77, -52.76 101.49" stroke="#000000" stroke-width="1" fill="none"></path></g><g transform="translate(221.99999999999955 43.16666666666674) rotate(0 -25.62593078827183 50.94158600102179)"><path d="M-46.96 71.27 C-49.68 81.72, -51.45 87.21, -53.42 103.32 M-48.42 71.46 C-50.75 83.66, -52.05 93.67, -52.21 101.02" stroke="#000000" stroke-width="1" fill="none"></path></g><g transform="translate(221.99999999999955 43.16666666666674) rotate(0 -25.62593078827183 50.94158600102179)"><path d="M-28.86 80.94 C-36.76 88.56, -43.68 91.31, -53.42 103.32 M-30.32 81.13 C-39.34 89.7, -47.41 96.1, -52.21 101.02" stroke="#000000" stroke-width="1" fill="none"></path></g></g></svg>